<mxfile host="app.diagrams.net" modified="2023-03-10T06:36:19.985Z" agent="5.0 (Windows NT 10.0; Win64; x64) AppleWebKit/537.36 (KHTML, like Gecko) Chrome/110.0.0.0 Safari/537.36 Edg/110.0.1587.63" etag="xJRKqlQAHGwtJfWSs_cJ" version="21.0.2" type="github" pages="4">
  <diagram name="第 1 页" id="05zJXQQo-lXWTsRvjE4Z">
    <mxGraphModel dx="1002" dy="549" grid="0" gridSize="10" guides="1" tooltips="1" connect="1" arrows="1" fold="1" page="1" pageScale="1" pageWidth="800" pageHeight="700" math="0" shadow="0">
      <root>
        <mxCell id="0" />
        <mxCell id="1" parent="0" />
        <mxCell id="wC2a1kBOCHKzVUe_9aMm-1" value="" style="rounded=1;whiteSpace=wrap;html=1;shadow=0;sketch=0;strokeColor=#d6b656;fontFamily=Times New Roman;fontSize=14;fillColor=#fff2cc;dashed=1;opacity=70;" vertex="1" parent="1">
          <mxGeometry x="140" y="91" width="220" height="110" as="geometry" />
        </mxCell>
        <mxCell id="wC2a1kBOCHKzVUe_9aMm-3" value="" style="rounded=1;whiteSpace=wrap;html=1;shadow=0;sketch=0;strokeColor=#0e8088;fontFamily=Times New Roman;fontSize=14;fillColor=#b0e3e6;dashed=1;opacity=70;" vertex="1" parent="1">
          <mxGeometry x="483" y="475" width="221" height="102" as="geometry" />
        </mxCell>
        <mxCell id="6ozdJL18VaXuNYZx4ikK-13" value="" style="rounded=1;whiteSpace=wrap;html=1;shadow=0;sketch=0;strokeColor=#6c8ebf;fontFamily=Times New Roman;fontSize=14;fillColor=#dae8fc;dashed=1;opacity=70;" parent="1" vertex="1">
          <mxGeometry x="483" y="329" width="221" height="127" as="geometry" />
        </mxCell>
        <mxCell id="6ozdJL18VaXuNYZx4ikK-11" value="" style="rounded=1;whiteSpace=wrap;html=1;shadow=0;sketch=0;strokeColor=default;fontFamily=Times New Roman;fontSize=14;fillColor=#d5e8d4;dashed=1;opacity=70;" parent="1" vertex="1">
          <mxGeometry x="439" y="74" width="243" height="153" as="geometry" />
        </mxCell>
        <mxCell id="6ozdJL18VaXuNYZx4ikK-9" value="" style="rounded=1;whiteSpace=wrap;html=1;shadow=0;sketch=0;strokeColor=default;fontFamily=Times New Roman;fontSize=14;fillColor=#ffe6cc;dashed=1;opacity=70;" parent="1" vertex="1">
          <mxGeometry x="140" y="498.5" width="220" height="127" as="geometry" />
        </mxCell>
        <mxCell id="6ozdJL18VaXuNYZx4ikK-6" value="" style="rounded=1;whiteSpace=wrap;html=1;shadow=0;sketch=0;strokeColor=default;fontFamily=Times New Roman;fontSize=14;fillColor=#e1d5e7;dashed=1;opacity=70;" parent="1" vertex="1">
          <mxGeometry x="140" y="348" width="220" height="127" as="geometry" />
        </mxCell>
        <mxCell id="6ozdJL18VaXuNYZx4ikK-4" value="" style="rounded=1;whiteSpace=wrap;html=1;shadow=0;sketch=0;strokeColor=default;fontFamily=Times New Roman;fontSize=14;fillColor=#f8cecc;dashed=1;opacity=70;" parent="1" vertex="1">
          <mxGeometry x="140" y="216" width="220" height="110" as="geometry" />
        </mxCell>
        <mxCell id="Xlg47leXmTcY63v79dRD-1" value="" style="rounded=0;whiteSpace=wrap;html=1;fillColor=none;strokeWidth=2;" parent="1" vertex="1">
          <mxGeometry x="55" y="55" width="315" height="615" as="geometry" />
        </mxCell>
        <mxCell id="Xlg47leXmTcY63v79dRD-2" value="&lt;font style=&quot;font-size: 14px;&quot;&gt;&lt;font face=&quot;Times New Roman&quot;&gt;Conv 3&lt;/font&gt;x&lt;font face=&quot;Times New Roman&quot;&gt;3, 32, stride=2&lt;/font&gt;&lt;/font&gt;" style="rounded=0;whiteSpace=wrap;html=1;fillColor=none;" parent="1" vertex="1">
          <mxGeometry x="160" y="101" width="160" height="20" as="geometry" />
        </mxCell>
        <mxCell id="Xlg47leXmTcY63v79dRD-3" value="&lt;font face=&quot;Times New Roman&quot;&gt;&lt;span style=&quot;font-size: 14px;&quot;&gt;ReLU&lt;/span&gt;&lt;/font&gt;" style="rounded=0;whiteSpace=wrap;html=1;fillColor=none;" parent="1" vertex="1">
          <mxGeometry x="160" y="121" width="160" height="20" as="geometry" />
        </mxCell>
        <mxCell id="Xlg47leXmTcY63v79dRD-4" value="&lt;font style=&quot;font-size: 14px;&quot;&gt;&lt;font face=&quot;Times New Roman&quot;&gt;Conv 3&lt;/font&gt;x&lt;font face=&quot;Times New Roman&quot;&gt;3, 64&lt;/font&gt;&lt;/font&gt;" style="rounded=0;whiteSpace=wrap;html=1;fillColor=none;" parent="1" vertex="1">
          <mxGeometry x="160" y="151" width="160" height="20" as="geometry" />
        </mxCell>
        <mxCell id="Xlg47leXmTcY63v79dRD-5" value="&lt;font face=&quot;Times New Roman&quot;&gt;&lt;span style=&quot;font-size: 14px;&quot;&gt;ReLU&lt;/span&gt;&lt;/font&gt;" style="rounded=0;whiteSpace=wrap;html=1;fillColor=none;" parent="1" vertex="1">
          <mxGeometry x="160" y="171" width="160" height="20" as="geometry" />
        </mxCell>
        <mxCell id="Xlg47leXmTcY63v79dRD-6" value="&lt;font style=&quot;font-size: 14px;&quot;&gt;&lt;font face=&quot;Times New Roman&quot;&gt;SeparableConv 3&lt;/font&gt;x&lt;font face=&quot;Times New Roman&quot;&gt;3, 128&lt;/font&gt;&lt;/font&gt;" style="rounded=0;whiteSpace=wrap;html=1;fillColor=none;strokeColor=default;" parent="1" vertex="1">
          <mxGeometry x="160" y="221" width="160" height="20" as="geometry" />
        </mxCell>
        <mxCell id="Xlg47leXmTcY63v79dRD-7" value="&lt;font face=&quot;Times New Roman&quot;&gt;&lt;span style=&quot;font-size: 14px;&quot;&gt;ReLU&lt;/span&gt;&lt;/font&gt;" style="rounded=0;whiteSpace=wrap;html=1;fillColor=none;strokeColor=default;" parent="1" vertex="1">
          <mxGeometry x="160" y="251" width="160" height="20" as="geometry" />
        </mxCell>
        <mxCell id="Xlg47leXmTcY63v79dRD-8" value="&lt;font style=&quot;font-size: 14px;&quot;&gt;&lt;font face=&quot;Times New Roman&quot;&gt;SeparableConv 3&lt;/font&gt;x&lt;font face=&quot;Times New Roman&quot;&gt;3, 128&lt;/font&gt;&lt;/font&gt;" style="rounded=0;whiteSpace=wrap;html=1;fillColor=none;strokeColor=default;" parent="1" vertex="1">
          <mxGeometry x="160" y="271" width="160" height="20" as="geometry" />
        </mxCell>
        <mxCell id="Xlg47leXmTcY63v79dRD-37" style="edgeStyle=orthogonalEdgeStyle;rounded=0;orthogonalLoop=1;jettySize=auto;html=1;exitX=0.5;exitY=1;exitDx=0;exitDy=0;entryX=0.5;entryY=0;entryDx=0;entryDy=0;fontFamily=Verdana;fontSize=14;endArrow=none;endFill=0;" parent="1" source="Xlg47leXmTcY63v79dRD-10" target="Xlg47leXmTcY63v79dRD-30" edge="1">
          <mxGeometry relative="1" as="geometry" />
        </mxCell>
        <mxCell id="Xlg47leXmTcY63v79dRD-10" value="&lt;font style=&quot;font-size: 14px;&quot;&gt;&lt;font face=&quot;Times New Roman&quot;&gt;Maxpooling&amp;nbsp;&lt;/font&gt;&lt;font style=&quot;border-color: var(--border-color);&quot; face=&quot;Times New Roman&quot;&gt;3&lt;/font&gt;&lt;font style=&quot;border-color: var(--border-color);&quot;&gt;x&lt;/font&gt;&lt;font style=&quot;border-color: var(--border-color);&quot; face=&quot;Times New Roman&quot;&gt;3&lt;/font&gt;&lt;font face=&quot;Times New Roman&quot;&gt;, stride=2&lt;/font&gt;&lt;/font&gt;" style="rounded=0;whiteSpace=wrap;html=1;fillColor=none;strokeColor=default;" parent="1" vertex="1">
          <mxGeometry x="160" y="301" width="160" height="20" as="geometry" />
        </mxCell>
        <mxCell id="Xlg47leXmTcY63v79dRD-43" style="edgeStyle=orthogonalEdgeStyle;rounded=0;orthogonalLoop=1;jettySize=auto;html=1;exitX=0.5;exitY=1;exitDx=0;exitDy=0;entryX=0.5;entryY=0;entryDx=0;entryDy=0;fontFamily=Verdana;fontSize=14;endArrow=none;endFill=0;" parent="1" source="Xlg47leXmTcY63v79dRD-11" target="Xlg47leXmTcY63v79dRD-12" edge="1">
          <mxGeometry relative="1" as="geometry" />
        </mxCell>
        <mxCell id="Xlg47leXmTcY63v79dRD-11" value="&lt;font style=&quot;font-size: 14px;&quot;&gt;&lt;font face=&quot;Times New Roman&quot;&gt;SeparableConv 3&lt;/font&gt;x&lt;font face=&quot;Times New Roman&quot;&gt;3, 256&lt;/font&gt;&lt;/font&gt;" style="rounded=0;whiteSpace=wrap;html=1;fillColor=none;" parent="1" vertex="1">
          <mxGeometry x="160" y="371" width="160" height="20" as="geometry" />
        </mxCell>
        <mxCell id="Xlg47leXmTcY63v79dRD-12" value="&lt;font face=&quot;Times New Roman&quot;&gt;&lt;span style=&quot;font-size: 14px;&quot;&gt;ReLU&lt;/span&gt;&lt;/font&gt;" style="rounded=0;whiteSpace=wrap;html=1;fillColor=none;" parent="1" vertex="1">
          <mxGeometry x="160" y="401" width="160" height="20" as="geometry" />
        </mxCell>
        <mxCell id="Xlg47leXmTcY63v79dRD-44" style="edgeStyle=orthogonalEdgeStyle;rounded=0;orthogonalLoop=1;jettySize=auto;html=1;exitX=0.5;exitY=1;exitDx=0;exitDy=0;entryX=0.5;entryY=0;entryDx=0;entryDy=0;fontFamily=Verdana;fontSize=14;endArrow=none;endFill=0;" parent="1" source="Xlg47leXmTcY63v79dRD-13" target="Xlg47leXmTcY63v79dRD-14" edge="1">
          <mxGeometry relative="1" as="geometry" />
        </mxCell>
        <mxCell id="Xlg47leXmTcY63v79dRD-13" value="&lt;font style=&quot;font-size: 14px;&quot;&gt;&lt;font face=&quot;Times New Roman&quot;&gt;SeparableConv 3&lt;/font&gt;x&lt;font face=&quot;Times New Roman&quot;&gt;3, 256&lt;/font&gt;&lt;/font&gt;" style="rounded=0;whiteSpace=wrap;html=1;fillColor=none;" parent="1" vertex="1">
          <mxGeometry x="160" y="421" width="160" height="20" as="geometry" />
        </mxCell>
        <mxCell id="Xlg47leXmTcY63v79dRD-64" style="edgeStyle=orthogonalEdgeStyle;rounded=0;orthogonalLoop=1;jettySize=auto;html=1;exitX=0.5;exitY=1;exitDx=0;exitDy=0;entryX=0.5;entryY=0;entryDx=0;entryDy=0;fontFamily=Verdana;fontSize=14;endArrow=none;endFill=0;" parent="1" source="Xlg47leXmTcY63v79dRD-14" target="Xlg47leXmTcY63v79dRD-63" edge="1">
          <mxGeometry relative="1" as="geometry" />
        </mxCell>
        <mxCell id="Xlg47leXmTcY63v79dRD-14" value="&lt;font style=&quot;font-size: 14px;&quot;&gt;&lt;font face=&quot;Times New Roman&quot;&gt;Maxpooling&amp;nbsp;&lt;/font&gt;&lt;font style=&quot;border-color: var(--border-color);&quot; face=&quot;Times New Roman&quot;&gt;3&lt;/font&gt;&lt;font style=&quot;border-color: var(--border-color);&quot;&gt;x&lt;/font&gt;&lt;font style=&quot;border-color: var(--border-color);&quot; face=&quot;Times New Roman&quot;&gt;3&lt;/font&gt;&lt;font face=&quot;Times New Roman&quot;&gt;, stride=2&lt;/font&gt;&lt;/font&gt;" style="rounded=0;whiteSpace=wrap;html=1;fillColor=none;" parent="1" vertex="1">
          <mxGeometry x="160" y="451" width="160" height="20" as="geometry" />
        </mxCell>
        <mxCell id="Xlg47leXmTcY63v79dRD-15" value="&lt;font face=&quot;Times New Roman&quot;&gt;&lt;span style=&quot;font-size: 14px;&quot;&gt;ReLU&lt;/span&gt;&lt;/font&gt;" style="rounded=0;whiteSpace=wrap;html=1;fillColor=none;strokeColor=default;" parent="1" vertex="1">
          <mxGeometry x="160" y="351" width="160" height="20" as="geometry" />
        </mxCell>
        <mxCell id="Xlg47leXmTcY63v79dRD-25" value="" style="endArrow=none;html=1;rounded=0;fontFamily=Verdana;fontSize=14;" parent="1" edge="1">
          <mxGeometry width="50" height="50" relative="1" as="geometry">
            <mxPoint x="239.57999999999998" y="101" as="sourcePoint" />
            <mxPoint x="239.57999999999998" y="81" as="targetPoint" />
          </mxGeometry>
        </mxCell>
        <mxCell id="Xlg47leXmTcY63v79dRD-26" value="" style="endArrow=none;html=1;rounded=0;fontFamily=Verdana;fontSize=14;" parent="1" edge="1">
          <mxGeometry width="50" height="50" relative="1" as="geometry">
            <mxPoint x="239.58" y="151" as="sourcePoint" />
            <mxPoint x="239.58" y="141" as="targetPoint" />
          </mxGeometry>
        </mxCell>
        <mxCell id="Xlg47leXmTcY63v79dRD-27" value="" style="endArrow=none;html=1;rounded=0;fontFamily=Verdana;fontSize=14;" parent="1" edge="1">
          <mxGeometry width="50" height="50" relative="1" as="geometry">
            <mxPoint x="239.58" y="221" as="sourcePoint" />
            <mxPoint x="239.58" y="191" as="targetPoint" />
          </mxGeometry>
        </mxCell>
        <mxCell id="Xlg47leXmTcY63v79dRD-28" value="" style="endArrow=none;html=1;rounded=0;fontFamily=Verdana;fontSize=14;" parent="1" edge="1">
          <mxGeometry width="50" height="50" relative="1" as="geometry">
            <mxPoint x="239.58" y="251" as="sourcePoint" />
            <mxPoint x="239.58" y="241" as="targetPoint" />
          </mxGeometry>
        </mxCell>
        <mxCell id="Xlg47leXmTcY63v79dRD-29" value="" style="endArrow=none;html=1;rounded=0;fontFamily=Verdana;fontSize=14;" parent="1" edge="1">
          <mxGeometry width="50" height="50" relative="1" as="geometry">
            <mxPoint x="239.58" y="301" as="sourcePoint" />
            <mxPoint x="239.58" y="291" as="targetPoint" />
          </mxGeometry>
        </mxCell>
        <mxCell id="Xlg47leXmTcY63v79dRD-39" style="edgeStyle=orthogonalEdgeStyle;rounded=0;orthogonalLoop=1;jettySize=auto;html=1;exitX=0.5;exitY=1;exitDx=0;exitDy=0;entryX=0.5;entryY=0;entryDx=0;entryDy=0;fontFamily=Verdana;fontSize=14;endArrow=none;endFill=0;" parent="1" source="Xlg47leXmTcY63v79dRD-30" target="Xlg47leXmTcY63v79dRD-15" edge="1">
          <mxGeometry relative="1" as="geometry" />
        </mxCell>
        <mxCell id="Xlg47leXmTcY63v79dRD-30" value="" style="shape=orEllipse;perimeter=ellipsePerimeter;whiteSpace=wrap;html=1;backgroundOutline=1;fontFamily=Verdana;fontSize=14;fillColor=none;" parent="1" vertex="1">
          <mxGeometry x="232" y="328" width="16" height="16" as="geometry" />
        </mxCell>
        <mxCell id="Xlg47leXmTcY63v79dRD-55" style="edgeStyle=orthogonalEdgeStyle;rounded=0;orthogonalLoop=1;jettySize=auto;html=1;exitX=0.5;exitY=1;exitDx=0;exitDy=0;entryX=0.5;entryY=0;entryDx=0;entryDy=0;fontFamily=Verdana;fontSize=14;endArrow=none;endFill=0;" parent="1" source="Xlg47leXmTcY63v79dRD-56" target="Xlg47leXmTcY63v79dRD-57" edge="1">
          <mxGeometry relative="1" as="geometry" />
        </mxCell>
        <mxCell id="Xlg47leXmTcY63v79dRD-56" value="&lt;font style=&quot;font-size: 14px;&quot;&gt;&lt;font face=&quot;Times New Roman&quot;&gt;SeparableConv 3&lt;/font&gt;x&lt;font face=&quot;Times New Roman&quot;&gt;3, 728&lt;/font&gt;&lt;/font&gt;" style="rounded=0;whiteSpace=wrap;html=1;fillColor=none;strokeColor=default;" parent="1" vertex="1">
          <mxGeometry x="160" y="522" width="160" height="20" as="geometry" />
        </mxCell>
        <mxCell id="Xlg47leXmTcY63v79dRD-57" value="&lt;font face=&quot;Times New Roman&quot;&gt;&lt;span style=&quot;font-size: 14px;&quot;&gt;ReLU&lt;/span&gt;&lt;/font&gt;" style="rounded=0;whiteSpace=wrap;html=1;fillColor=none;strokeColor=default;" parent="1" vertex="1">
          <mxGeometry x="160" y="552" width="160" height="20" as="geometry" />
        </mxCell>
        <mxCell id="Xlg47leXmTcY63v79dRD-58" style="edgeStyle=orthogonalEdgeStyle;rounded=0;orthogonalLoop=1;jettySize=auto;html=1;exitX=0.5;exitY=1;exitDx=0;exitDy=0;entryX=0.5;entryY=0;entryDx=0;entryDy=0;fontFamily=Verdana;fontSize=14;endArrow=none;endFill=0;" parent="1" source="Xlg47leXmTcY63v79dRD-59" target="Xlg47leXmTcY63v79dRD-60" edge="1">
          <mxGeometry relative="1" as="geometry" />
        </mxCell>
        <mxCell id="Xlg47leXmTcY63v79dRD-59" value="&lt;font style=&quot;font-size: 14px;&quot;&gt;&lt;font face=&quot;Times New Roman&quot;&gt;SeparableConv 3&lt;/font&gt;x&lt;font face=&quot;Times New Roman&quot;&gt;3, 728&lt;/font&gt;&lt;/font&gt;" style="rounded=0;whiteSpace=wrap;html=1;fillColor=none;strokeColor=default;" parent="1" vertex="1">
          <mxGeometry x="160" y="572" width="160" height="20" as="geometry" />
        </mxCell>
        <mxCell id="Xlg47leXmTcY63v79dRD-69" style="edgeStyle=orthogonalEdgeStyle;rounded=0;orthogonalLoop=1;jettySize=auto;html=1;exitX=0.5;exitY=1;exitDx=0;exitDy=0;entryX=0.5;entryY=0;entryDx=0;entryDy=0;fontFamily=Times New Roman;fontSize=14;endArrow=none;endFill=0;" parent="1" source="Xlg47leXmTcY63v79dRD-60" target="Xlg47leXmTcY63v79dRD-67" edge="1">
          <mxGeometry relative="1" as="geometry" />
        </mxCell>
        <mxCell id="Xlg47leXmTcY63v79dRD-60" value="&lt;font style=&quot;font-size: 14px;&quot;&gt;&lt;font face=&quot;Times New Roman&quot;&gt;Maxpooling&amp;nbsp;&lt;/font&gt;&lt;font style=&quot;border-color: var(--border-color);&quot; face=&quot;Times New Roman&quot;&gt;3&lt;/font&gt;&lt;font style=&quot;border-color: var(--border-color);&quot;&gt;x&lt;/font&gt;&lt;font style=&quot;border-color: var(--border-color);&quot; face=&quot;Times New Roman&quot;&gt;3&lt;/font&gt;&lt;font face=&quot;Times New Roman&quot;&gt;, stride=2&lt;/font&gt;&lt;/font&gt;" style="rounded=0;whiteSpace=wrap;html=1;fillColor=none;strokeColor=default;" parent="1" vertex="1">
          <mxGeometry x="160" y="602" width="160" height="20" as="geometry" />
        </mxCell>
        <mxCell id="Xlg47leXmTcY63v79dRD-61" value="&lt;font face=&quot;Times New Roman&quot;&gt;&lt;span style=&quot;font-size: 14px;&quot;&gt;ReLU&lt;/span&gt;&lt;/font&gt;" style="rounded=0;whiteSpace=wrap;html=1;fillColor=none;strokeColor=default;" parent="1" vertex="1">
          <mxGeometry x="160" y="502" width="160" height="20" as="geometry" />
        </mxCell>
        <mxCell id="Xlg47leXmTcY63v79dRD-62" style="edgeStyle=orthogonalEdgeStyle;rounded=0;orthogonalLoop=1;jettySize=auto;html=1;exitX=0.5;exitY=1;exitDx=0;exitDy=0;entryX=0.5;entryY=0;entryDx=0;entryDy=0;fontFamily=Verdana;fontSize=14;endArrow=none;endFill=0;" parent="1" source="Xlg47leXmTcY63v79dRD-63" target="Xlg47leXmTcY63v79dRD-61" edge="1">
          <mxGeometry relative="1" as="geometry" />
        </mxCell>
        <mxCell id="Xlg47leXmTcY63v79dRD-63" value="" style="shape=orEllipse;perimeter=ellipsePerimeter;whiteSpace=wrap;html=1;backgroundOutline=1;fontFamily=Verdana;fontSize=14;fillColor=none;" parent="1" vertex="1">
          <mxGeometry x="232" y="479" width="16" height="16" as="geometry" />
        </mxCell>
        <mxCell id="Xlg47leXmTcY63v79dRD-65" value="&lt;font face=&quot;Times New Roman&quot;&gt;input&lt;/font&gt;" style="text;strokeColor=none;fillColor=none;html=1;fontSize=14;fontStyle=1;verticalAlign=middle;align=center;fontFamily=Verdana;" parent="1" vertex="1">
          <mxGeometry x="195" y="61" width="90" height="20" as="geometry" />
        </mxCell>
        <mxCell id="Xlg47leXmTcY63v79dRD-66" style="edgeStyle=orthogonalEdgeStyle;rounded=0;orthogonalLoop=1;jettySize=auto;html=1;exitX=0.5;exitY=1;exitDx=0;exitDy=0;fontFamily=Verdana;fontSize=14;endArrow=none;endFill=0;" parent="1" source="Xlg47leXmTcY63v79dRD-67" edge="1">
          <mxGeometry relative="1" as="geometry">
            <mxPoint x="240" y="661" as="targetPoint" />
          </mxGeometry>
        </mxCell>
        <mxCell id="Xlg47leXmTcY63v79dRD-67" value="" style="shape=orEllipse;perimeter=ellipsePerimeter;whiteSpace=wrap;html=1;backgroundOutline=1;fontFamily=Verdana;fontSize=14;fillColor=none;" parent="1" vertex="1">
          <mxGeometry x="232" y="631" width="16" height="16" as="geometry" />
        </mxCell>
        <mxCell id="Xlg47leXmTcY63v79dRD-73" value="" style="edgeStyle=elbowEdgeStyle;elbow=horizontal;endArrow=none;html=1;curved=0;rounded=0;endSize=8;startSize=8;fontFamily=Times New Roman;fontSize=14;exitX=0;exitY=0.5;exitDx=0;exitDy=0;endFill=0;entryX=0;entryY=0.5;entryDx=0;entryDy=0;" parent="1" source="Xlg47leXmTcY63v79dRD-63" target="Xlg47leXmTcY63v79dRD-30" edge="1">
          <mxGeometry width="50" height="50" relative="1" as="geometry">
            <mxPoint x="226" y="471" as="sourcePoint" />
            <mxPoint x="234" y="341" as="targetPoint" />
            <Array as="points">
              <mxPoint x="100" y="410" />
            </Array>
          </mxGeometry>
        </mxCell>
        <mxCell id="Xlg47leXmTcY63v79dRD-74" value="&lt;font style=&quot;border-color: var(--border-color);&quot; face=&quot;Times New Roman&quot;&gt;Conv 1&lt;/font&gt;&lt;font face=&quot;Helvetica&quot; style=&quot;border-color: var(--border-color);&quot;&gt;x&lt;/font&gt;&lt;font style=&quot;border-color: var(--border-color);&quot;&gt;1&lt;/font&gt;&lt;font style=&quot;border-color: var(--border-color);&quot; face=&quot;Times New Roman&quot;&gt;, stride=2&lt;/font&gt;" style="rounded=0;whiteSpace=wrap;html=1;fontFamily=Times New Roman;fontSize=14;" parent="1" vertex="1">
          <mxGeometry x="65" y="391" width="70" height="40" as="geometry" />
        </mxCell>
        <mxCell id="Xlg47leXmTcY63v79dRD-75" value="" style="edgeStyle=elbowEdgeStyle;elbow=horizontal;endArrow=none;html=1;curved=0;rounded=0;endSize=8;startSize=8;fontFamily=Times New Roman;fontSize=14;exitX=0;exitY=0.5;exitDx=0;exitDy=0;endFill=0;entryX=0;entryY=0.5;entryDx=0;entryDy=0;" parent="1" source="Xlg47leXmTcY63v79dRD-67" edge="1">
          <mxGeometry width="50" height="50" relative="1" as="geometry">
            <mxPoint x="232" y="637.5" as="sourcePoint" />
            <mxPoint x="232" y="486.5" as="targetPoint" />
            <Array as="points">
              <mxPoint x="100" y="560" />
            </Array>
          </mxGeometry>
        </mxCell>
        <mxCell id="Xlg47leXmTcY63v79dRD-76" value="&lt;font style=&quot;border-color: var(--border-color);&quot; face=&quot;Times New Roman&quot;&gt;Conv 1&lt;/font&gt;&lt;font face=&quot;Helvetica&quot; style=&quot;border-color: var(--border-color);&quot;&gt;x&lt;/font&gt;&lt;font style=&quot;border-color: var(--border-color);&quot;&gt;1&lt;/font&gt;&lt;font style=&quot;border-color: var(--border-color);&quot; face=&quot;Times New Roman&quot;&gt;, stride=2&lt;/font&gt;" style="rounded=0;whiteSpace=wrap;html=1;fontFamily=Times New Roman;fontSize=14;" parent="1" vertex="1">
          <mxGeometry x="65" y="541" width="70" height="40" as="geometry" />
        </mxCell>
        <mxCell id="Xlg47leXmTcY63v79dRD-77" value="&lt;b&gt;&lt;font style=&quot;font-size: 18px;&quot; face=&quot;Times New Roman&quot;&gt;Entry Flow&lt;/font&gt;&lt;/b&gt;" style="text;html=1;strokeColor=none;fillColor=none;align=center;verticalAlign=middle;whiteSpace=wrap;rounded=0;fontSize=14;fontFamily=Helvetica;" parent="1" vertex="1">
          <mxGeometry x="162.5" y="25" width="100" height="30" as="geometry" />
        </mxCell>
        <mxCell id="Xlg47leXmTcY63v79dRD-78" value="" style="rounded=0;whiteSpace=wrap;html=1;fillColor=none;strokeWidth=2;" parent="1" vertex="1">
          <mxGeometry x="387.5" y="55" width="332.5" height="212" as="geometry" />
        </mxCell>
        <mxCell id="Xlg47leXmTcY63v79dRD-96" value="" style="endArrow=none;html=1;rounded=0;fontFamily=Verdana;fontSize=14;" parent="1" edge="1">
          <mxGeometry width="50" height="50" relative="1" as="geometry">
            <mxPoint x="542.5799999999999" y="81" as="sourcePoint" />
            <mxPoint x="542.5799999999999" y="61" as="targetPoint" />
          </mxGeometry>
        </mxCell>
        <mxCell id="Xlg47leXmTcY63v79dRD-122" value="&lt;b&gt;&lt;font style=&quot;font-size: 18px;&quot; face=&quot;Times New Roman&quot;&gt;Middle Flow&lt;/font&gt;&lt;/b&gt;" style="text;html=1;strokeColor=none;fillColor=none;align=center;verticalAlign=middle;whiteSpace=wrap;rounded=0;fontSize=14;fontFamily=Helvetica;" parent="1" vertex="1">
          <mxGeometry x="503.75" y="25" width="100" height="30" as="geometry" />
        </mxCell>
        <mxCell id="Xlg47leXmTcY63v79dRD-123" value="&lt;font face=&quot;Times New Roman&quot;&gt;&lt;span style=&quot;font-size: 14px;&quot;&gt;ReLU&lt;/span&gt;&lt;/font&gt;" style="rounded=0;whiteSpace=wrap;html=1;fillColor=none;strokeColor=default;" parent="1" vertex="1">
          <mxGeometry x="462" y="81" width="160" height="20" as="geometry" />
        </mxCell>
        <mxCell id="Xlg47leXmTcY63v79dRD-133" style="edgeStyle=orthogonalEdgeStyle;rounded=0;orthogonalLoop=1;jettySize=auto;html=1;exitX=0.5;exitY=1;exitDx=0;exitDy=0;entryX=0.5;entryY=0;entryDx=0;entryDy=0;fontFamily=Times New Roman;fontSize=18;endArrow=none;endFill=0;" parent="1" source="Xlg47leXmTcY63v79dRD-124" target="Xlg47leXmTcY63v79dRD-131" edge="1">
          <mxGeometry relative="1" as="geometry" />
        </mxCell>
        <mxCell id="Xlg47leXmTcY63v79dRD-124" value="&lt;font style=&quot;font-size: 14px;&quot;&gt;&lt;font face=&quot;Times New Roman&quot;&gt;SeparableConv 3&lt;/font&gt;x&lt;font face=&quot;Times New Roman&quot;&gt;3, 728&lt;/font&gt;&lt;/font&gt;" style="rounded=0;whiteSpace=wrap;html=1;fillColor=none;" parent="1" vertex="1">
          <mxGeometry x="462" y="101" width="160" height="20" as="geometry" />
        </mxCell>
        <mxCell id="Xlg47leXmTcY63v79dRD-134" style="edgeStyle=orthogonalEdgeStyle;rounded=0;orthogonalLoop=1;jettySize=auto;html=1;exitX=0.5;exitY=1;exitDx=0;exitDy=0;entryX=0.5;entryY=0;entryDx=0;entryDy=0;fontFamily=Times New Roman;fontSize=18;endArrow=none;endFill=0;" parent="1" source="Xlg47leXmTcY63v79dRD-128" target="Xlg47leXmTcY63v79dRD-129" edge="1">
          <mxGeometry relative="1" as="geometry" />
        </mxCell>
        <mxCell id="Xlg47leXmTcY63v79dRD-128" value="&lt;font style=&quot;font-size: 14px;&quot;&gt;&lt;font face=&quot;Times New Roman&quot;&gt;SeparableConv 3&lt;/font&gt;x&lt;font face=&quot;Times New Roman&quot;&gt;3, 728&lt;/font&gt;&lt;/font&gt;" style="rounded=0;whiteSpace=wrap;html=1;fillColor=none;" parent="1" vertex="1">
          <mxGeometry x="462" y="151" width="160" height="20" as="geometry" />
        </mxCell>
        <mxCell id="Xlg47leXmTcY63v79dRD-129" value="&lt;font face=&quot;Times New Roman&quot;&gt;&lt;span style=&quot;font-size: 14px;&quot;&gt;ReLU&lt;/span&gt;&lt;/font&gt;" style="rounded=0;whiteSpace=wrap;html=1;fillColor=none;" parent="1" vertex="1">
          <mxGeometry x="462" y="181" width="160" height="20" as="geometry" />
        </mxCell>
        <mxCell id="Xlg47leXmTcY63v79dRD-130" value="&lt;font style=&quot;font-size: 14px;&quot;&gt;&lt;font face=&quot;Times New Roman&quot;&gt;SeparableConv 3&lt;/font&gt;x&lt;font face=&quot;Times New Roman&quot;&gt;3, 728&lt;/font&gt;&lt;/font&gt;" style="rounded=0;whiteSpace=wrap;html=1;fillColor=none;" parent="1" vertex="1">
          <mxGeometry x="462" y="201" width="160" height="20" as="geometry" />
        </mxCell>
        <mxCell id="Xlg47leXmTcY63v79dRD-131" value="&lt;font face=&quot;Times New Roman&quot;&gt;&lt;span style=&quot;font-size: 14px;&quot;&gt;ReLU&lt;/span&gt;&lt;/font&gt;" style="rounded=0;whiteSpace=wrap;html=1;fillColor=none;" parent="1" vertex="1">
          <mxGeometry x="462" y="131" width="160" height="20" as="geometry" />
        </mxCell>
        <mxCell id="Xlg47leXmTcY63v79dRD-132" value="" style="edgeStyle=elbowEdgeStyle;elbow=horizontal;endArrow=none;html=1;curved=0;rounded=0;endSize=8;startSize=8;fontFamily=Times New Roman;fontSize=14;endFill=0;" parent="1" edge="1">
          <mxGeometry width="50" height="50" relative="1" as="geometry">
            <mxPoint x="542" y="231" as="sourcePoint" />
            <mxPoint x="542" y="71" as="targetPoint" />
            <Array as="points">
              <mxPoint x="425.5" y="147" />
            </Array>
          </mxGeometry>
        </mxCell>
        <mxCell id="Xlg47leXmTcY63v79dRD-135" value="" style="endArrow=none;html=1;rounded=0;fontFamily=Verdana;fontSize=14;" parent="1" edge="1">
          <mxGeometry width="50" height="50" relative="1" as="geometry">
            <mxPoint x="541.5799999999999" y="241" as="sourcePoint" />
            <mxPoint x="541.5799999999999" y="221" as="targetPoint" />
          </mxGeometry>
        </mxCell>
        <mxCell id="Xlg47leXmTcY63v79dRD-136" value="" style="rounded=0;whiteSpace=wrap;html=1;fillColor=none;strokeWidth=2;" parent="1" vertex="1">
          <mxGeometry x="387.5" y="300" width="332.5" height="370" as="geometry" />
        </mxCell>
        <mxCell id="Xlg47leXmTcY63v79dRD-141" value="&lt;font style=&quot;font-size: 14px;&quot;&gt;&lt;font face=&quot;Times New Roman&quot;&gt;SeparableConv 3&lt;/font&gt;x&lt;font face=&quot;Times New Roman&quot;&gt;3, 728&lt;/font&gt;&lt;/font&gt;" style="rounded=0;whiteSpace=wrap;html=1;fillColor=none;strokeColor=#000000;" parent="1" vertex="1">
          <mxGeometry x="497.5" y="352" width="160" height="20" as="geometry" />
        </mxCell>
        <mxCell id="Xlg47leXmTcY63v79dRD-142" value="&lt;font face=&quot;Times New Roman&quot;&gt;&lt;span style=&quot;font-size: 14px;&quot;&gt;ReLU&lt;/span&gt;&lt;/font&gt;" style="rounded=0;whiteSpace=wrap;html=1;fillColor=none;" parent="1" vertex="1">
          <mxGeometry x="497.5" y="382" width="160" height="20" as="geometry" />
        </mxCell>
        <mxCell id="Xlg47leXmTcY63v79dRD-143" value="&lt;font style=&quot;font-size: 14px;&quot;&gt;&lt;font face=&quot;Times New Roman&quot;&gt;SeparableConv 3&lt;/font&gt;x&lt;font face=&quot;Times New Roman&quot;&gt;3, 1024&lt;/font&gt;&lt;/font&gt;" style="rounded=0;whiteSpace=wrap;html=1;fillColor=none;" parent="1" vertex="1">
          <mxGeometry x="497.5" y="402" width="160" height="20" as="geometry" />
        </mxCell>
        <mxCell id="Xlg47leXmTcY63v79dRD-144" style="edgeStyle=orthogonalEdgeStyle;rounded=0;orthogonalLoop=1;jettySize=auto;html=1;exitX=0.5;exitY=1;exitDx=0;exitDy=0;entryX=0.5;entryY=0;entryDx=0;entryDy=0;fontFamily=Verdana;fontSize=14;endArrow=none;endFill=0;" parent="1" source="Xlg47leXmTcY63v79dRD-145" target="Xlg47leXmTcY63v79dRD-160" edge="1">
          <mxGeometry relative="1" as="geometry" />
        </mxCell>
        <mxCell id="Xlg47leXmTcY63v79dRD-145" value="&lt;font style=&quot;font-size: 14px;&quot;&gt;&lt;font face=&quot;Times New Roman&quot;&gt;Maxpooling&amp;nbsp;&lt;/font&gt;&lt;font style=&quot;border-color: var(--border-color);&quot; face=&quot;Times New Roman&quot;&gt;3&lt;/font&gt;&lt;font style=&quot;border-color: var(--border-color);&quot;&gt;x&lt;/font&gt;&lt;font style=&quot;border-color: var(--border-color);&quot; face=&quot;Times New Roman&quot;&gt;3&lt;/font&gt;&lt;font face=&quot;Times New Roman&quot;&gt;, stride=2&lt;/font&gt;&lt;/font&gt;" style="rounded=0;whiteSpace=wrap;html=1;fillColor=none;" parent="1" vertex="1">
          <mxGeometry x="497.5" y="432" width="160" height="20" as="geometry" />
        </mxCell>
        <mxCell id="Xlg47leXmTcY63v79dRD-147" value="&lt;font style=&quot;font-size: 14px;&quot;&gt;&lt;font face=&quot;Times New Roman&quot;&gt;SeparableConv 3&lt;/font&gt;x&lt;font face=&quot;Times New Roman&quot;&gt;3, 1536&lt;/font&gt;&lt;/font&gt;" style="rounded=0;whiteSpace=wrap;html=1;fillColor=none;" parent="1" vertex="1">
          <mxGeometry x="497.5" y="483" width="160" height="20" as="geometry" />
        </mxCell>
        <mxCell id="Xlg47leXmTcY63v79dRD-185" style="edgeStyle=orthogonalEdgeStyle;rounded=0;orthogonalLoop=1;jettySize=auto;html=1;exitX=0.5;exitY=1;exitDx=0;exitDy=0;entryX=0.5;entryY=0;entryDx=0;entryDy=0;fontFamily=Times New Roman;fontSize=14;endArrow=none;endFill=0;" parent="1" source="Xlg47leXmTcY63v79dRD-148" target="Xlg47leXmTcY63v79dRD-150" edge="1">
          <mxGeometry relative="1" as="geometry" />
        </mxCell>
        <mxCell id="Xlg47leXmTcY63v79dRD-148" value="&lt;font face=&quot;Times New Roman&quot;&gt;&lt;span style=&quot;font-size: 14px;&quot;&gt;ReLU&lt;/span&gt;&lt;/font&gt;" style="rounded=0;whiteSpace=wrap;html=1;fillColor=none;" parent="1" vertex="1">
          <mxGeometry x="497.5" y="503" width="160" height="20" as="geometry" />
        </mxCell>
        <mxCell id="Xlg47leXmTcY63v79dRD-150" value="&lt;font style=&quot;font-size: 14px;&quot;&gt;&lt;font face=&quot;Times New Roman&quot;&gt;SeparableConv 3&lt;/font&gt;x&lt;font face=&quot;Times New Roman&quot;&gt;3, 2048&lt;/font&gt;&lt;/font&gt;" style="rounded=0;whiteSpace=wrap;html=1;fillColor=none;" parent="1" vertex="1">
          <mxGeometry x="497.5" y="532" width="160" height="20" as="geometry" />
        </mxCell>
        <mxCell id="Xlg47leXmTcY63v79dRD-157" value="" style="endArrow=none;html=1;rounded=0;fontFamily=Verdana;fontSize=14;" parent="1" edge="1">
          <mxGeometry width="50" height="50" relative="1" as="geometry">
            <mxPoint x="577.08" y="382" as="sourcePoint" />
            <mxPoint x="577.08" y="372" as="targetPoint" />
          </mxGeometry>
        </mxCell>
        <mxCell id="Xlg47leXmTcY63v79dRD-158" value="" style="endArrow=none;html=1;rounded=0;fontFamily=Verdana;fontSize=14;" parent="1" edge="1">
          <mxGeometry width="50" height="50" relative="1" as="geometry">
            <mxPoint x="577.08" y="432" as="sourcePoint" />
            <mxPoint x="577.08" y="422" as="targetPoint" />
          </mxGeometry>
        </mxCell>
        <mxCell id="Xlg47leXmTcY63v79dRD-159" style="edgeStyle=orthogonalEdgeStyle;rounded=0;orthogonalLoop=1;jettySize=auto;html=1;exitX=0.5;exitY=1;exitDx=0;exitDy=0;entryX=0.5;entryY=0;entryDx=0;entryDy=0;fontFamily=Verdana;fontSize=14;endArrow=none;endFill=0;" parent="1" source="Xlg47leXmTcY63v79dRD-160" edge="1">
          <mxGeometry relative="1" as="geometry">
            <mxPoint x="577.5" y="482" as="targetPoint" />
          </mxGeometry>
        </mxCell>
        <mxCell id="Xlg47leXmTcY63v79dRD-160" value="" style="shape=orEllipse;perimeter=ellipsePerimeter;whiteSpace=wrap;html=1;backgroundOutline=1;fontFamily=Verdana;fontSize=14;fillColor=none;" parent="1" vertex="1">
          <mxGeometry x="569.5" y="459" width="16" height="16" as="geometry" />
        </mxCell>
        <mxCell id="Xlg47leXmTcY63v79dRD-189" style="edgeStyle=orthogonalEdgeStyle;rounded=0;orthogonalLoop=1;jettySize=auto;html=1;exitX=0.5;exitY=1;exitDx=0;exitDy=0;entryX=0.5;entryY=0;entryDx=0;entryDy=0;fontFamily=Times New Roman;fontSize=14;endArrow=none;endFill=0;" parent="1" source="Xlg47leXmTcY63v79dRD-168" target="Xlg47leXmTcY63v79dRD-187" edge="1">
          <mxGeometry relative="1" as="geometry" />
        </mxCell>
        <mxCell id="Xlg47leXmTcY63v79dRD-168" value="&lt;font face=&quot;Times New Roman&quot;&gt;&lt;span style=&quot;font-size: 14px;&quot;&gt;ReLU&lt;/span&gt;&lt;/font&gt;" style="rounded=0;whiteSpace=wrap;html=1;fillColor=none;" parent="1" vertex="1">
          <mxGeometry x="497.5" y="552" width="160" height="20" as="geometry" />
        </mxCell>
        <mxCell id="Xlg47leXmTcY63v79dRD-174" value="" style="edgeStyle=elbowEdgeStyle;elbow=horizontal;endArrow=none;html=1;curved=0;rounded=0;endSize=8;startSize=8;fontFamily=Times New Roman;fontSize=14;exitX=0;exitY=0.5;exitDx=0;exitDy=0;endFill=0;" parent="1" source="Xlg47leXmTcY63v79dRD-160" edge="1">
          <mxGeometry width="50" height="50" relative="1" as="geometry">
            <mxPoint x="567.5" y="507" as="sourcePoint" />
            <mxPoint x="577.5" y="322" as="targetPoint" />
            <Array as="points">
              <mxPoint x="440" y="390" />
            </Array>
          </mxGeometry>
        </mxCell>
        <mxCell id="Xlg47leXmTcY63v79dRD-175" value="&lt;font style=&quot;border-color: var(--border-color);&quot; face=&quot;Times New Roman&quot;&gt;Conv 1&lt;/font&gt;&lt;font face=&quot;Helvetica&quot; style=&quot;border-color: var(--border-color);&quot;&gt;x&lt;/font&gt;&lt;font style=&quot;border-color: var(--border-color);&quot;&gt;1&lt;/font&gt;&lt;font style=&quot;border-color: var(--border-color);&quot; face=&quot;Times New Roman&quot;&gt;, stride=2&lt;/font&gt;" style="rounded=0;whiteSpace=wrap;html=1;fontFamily=Times New Roman;fontSize=14;" parent="1" vertex="1">
          <mxGeometry x="405" y="381" width="70" height="40" as="geometry" />
        </mxCell>
        <mxCell id="Xlg47leXmTcY63v79dRD-180" value="&lt;b&gt;&lt;font style=&quot;font-size: 18px;&quot; face=&quot;Times New Roman&quot;&gt;Exit Flow&lt;/font&gt;&lt;/b&gt;" style="text;html=1;strokeColor=none;fillColor=none;align=center;verticalAlign=middle;whiteSpace=wrap;rounded=0;fontSize=14;fontFamily=Helvetica;" parent="1" vertex="1">
          <mxGeometry x="497.5" y="270" width="100" height="30" as="geometry" />
        </mxCell>
        <mxCell id="Xlg47leXmTcY63v79dRD-181" value="&lt;font style=&quot;font-size: 14px;&quot;&gt;&lt;b&gt;Repeat 8 times&lt;/b&gt;&lt;/font&gt;" style="text;html=1;strokeColor=none;fillColor=none;align=center;verticalAlign=middle;whiteSpace=wrap;rounded=0;fontSize=18;fontFamily=Times New Roman;" parent="1" vertex="1">
          <mxGeometry x="501" y="241" width="110" height="30" as="geometry" />
        </mxCell>
        <mxCell id="Xlg47leXmTcY63v79dRD-184" value="&lt;font face=&quot;Times New Roman&quot;&gt;&lt;span style=&quot;font-size: 14px;&quot;&gt;ReLU&lt;/span&gt;&lt;/font&gt;" style="rounded=0;whiteSpace=wrap;html=1;fillColor=none;strokeColor=default;fontColor=#000000;" parent="1" vertex="1">
          <mxGeometry x="497.5" y="332" width="160" height="20" as="geometry" />
        </mxCell>
        <mxCell id="Xlg47leXmTcY63v79dRD-193" style="edgeStyle=orthogonalEdgeStyle;rounded=0;orthogonalLoop=1;jettySize=auto;html=1;exitX=0.5;exitY=1;exitDx=0;exitDy=0;entryX=0.5;entryY=0;entryDx=0;entryDy=0;fontFamily=Times New Roman;fontSize=14;endArrow=none;endFill=0;" parent="1" source="Xlg47leXmTcY63v79dRD-187" target="Xlg47leXmTcY63v79dRD-191" edge="1">
          <mxGeometry relative="1" as="geometry" />
        </mxCell>
        <mxCell id="Xlg47leXmTcY63v79dRD-187" value="&lt;font face=&quot;Times New Roman&quot;&gt;&lt;span style=&quot;font-size: 14px;&quot;&gt;GlobalAveragePooling&lt;/span&gt;&lt;/font&gt;" style="rounded=0;whiteSpace=wrap;html=1;fillColor=none;" parent="1" vertex="1">
          <mxGeometry x="497.5" y="582" width="160" height="20" as="geometry" />
        </mxCell>
        <mxCell id="Xlg47leXmTcY63v79dRD-194" style="edgeStyle=orthogonalEdgeStyle;rounded=0;orthogonalLoop=1;jettySize=auto;html=1;exitX=0.5;exitY=1;exitDx=0;exitDy=0;entryX=0.5;entryY=0;entryDx=0;entryDy=0;fontFamily=Times New Roman;fontSize=14;endArrow=none;endFill=0;" parent="1" source="Xlg47leXmTcY63v79dRD-191" target="Xlg47leXmTcY63v79dRD-192" edge="1">
          <mxGeometry relative="1" as="geometry" />
        </mxCell>
        <mxCell id="Xlg47leXmTcY63v79dRD-191" value="&lt;font face=&quot;Times New Roman&quot;&gt;&lt;span style=&quot;font-size: 14px;&quot;&gt;FC&lt;/span&gt;&lt;/font&gt;" style="rounded=0;whiteSpace=wrap;html=1;fillColor=none;" parent="1" vertex="1">
          <mxGeometry x="497.5" y="613" width="160" height="20" as="geometry" />
        </mxCell>
        <mxCell id="Xlg47leXmTcY63v79dRD-192" value="&lt;font face=&quot;Times New Roman&quot;&gt;&lt;span style=&quot;font-size: 14px;&quot;&gt;Softmax&lt;/span&gt;&lt;/font&gt;" style="rounded=0;whiteSpace=wrap;html=1;fillColor=none;" parent="1" vertex="1">
          <mxGeometry x="497.5" y="642" width="160" height="20" as="geometry" />
        </mxCell>
        <mxCell id="Xlg47leXmTcY63v79dRD-195" value="" style="endArrow=none;html=1;rounded=0;fontFamily=Times New Roman;fontSize=14;" parent="1" edge="1">
          <mxGeometry width="50" height="50" relative="1" as="geometry">
            <mxPoint x="577.5" y="332" as="sourcePoint" />
            <mxPoint x="577.5" y="312" as="targetPoint" />
          </mxGeometry>
        </mxCell>
        <mxCell id="6ozdJL18VaXuNYZx4ikK-3" value="" style="edgeStyle=elbowEdgeStyle;elbow=horizontal;endArrow=none;html=1;curved=0;rounded=0;endSize=8;startSize=8;fontFamily=Times New Roman;fontSize=14;exitX=0;exitY=0.5;exitDx=0;exitDy=0;endFill=0;" parent="1" edge="1">
          <mxGeometry width="50" height="50" relative="1" as="geometry">
            <mxPoint x="232" y="336.5" as="sourcePoint" />
            <mxPoint x="240" y="210" as="targetPoint" />
            <Array as="points">
              <mxPoint x="100" y="280" />
            </Array>
          </mxGeometry>
        </mxCell>
        <mxCell id="Xlg47leXmTcY63v79dRD-72" value="&lt;font style=&quot;border-color: var(--border-color);&quot; face=&quot;Times New Roman&quot;&gt;Conv 1&lt;/font&gt;&lt;font face=&quot;Helvetica&quot; style=&quot;border-color: var(--border-color);&quot;&gt;x&lt;/font&gt;&lt;font style=&quot;border-color: var(--border-color);&quot;&gt;1&lt;/font&gt;&lt;font style=&quot;border-color: var(--border-color);&quot; face=&quot;Times New Roman&quot;&gt;, stride=2&lt;/font&gt;" style="rounded=0;whiteSpace=wrap;html=1;fontFamily=Times New Roman;fontSize=14;fillColor=default;" parent="1" vertex="1">
          <mxGeometry x="65" y="251" width="70" height="40" as="geometry" />
        </mxCell>
        <mxCell id="6ozdJL18VaXuNYZx4ikK-5" value="&lt;b&gt;&lt;font style=&quot;font-size: 12px;&quot;&gt;Block2&lt;/font&gt;&lt;/b&gt;" style="text;html=1;strokeColor=none;fillColor=none;align=center;verticalAlign=middle;whiteSpace=wrap;rounded=0;fontSize=14;fontFamily=Times New Roman;rotation=0;" parent="1" vertex="1">
          <mxGeometry x="310" y="256" width="60" height="30" as="geometry" />
        </mxCell>
        <mxCell id="6ozdJL18VaXuNYZx4ikK-7" value="&lt;b&gt;&lt;font style=&quot;font-size: 12px;&quot;&gt;Block3&lt;/font&gt;&lt;/b&gt;" style="text;html=1;strokeColor=none;fillColor=none;align=center;verticalAlign=middle;whiteSpace=wrap;rounded=0;fontSize=14;fontFamily=Times New Roman;rotation=0;" parent="1" vertex="1">
          <mxGeometry x="310" y="396" width="60" height="30" as="geometry" />
        </mxCell>
        <mxCell id="6ozdJL18VaXuNYZx4ikK-10" value="&lt;b&gt;&lt;font style=&quot;font-size: 12px;&quot;&gt;Block4&lt;/font&gt;&lt;/b&gt;" style="text;html=1;strokeColor=none;fillColor=none;align=center;verticalAlign=middle;whiteSpace=wrap;rounded=0;fontSize=14;fontFamily=Times New Roman;rotation=0;" parent="1" vertex="1">
          <mxGeometry x="310" y="546.5" width="60" height="30" as="geometry" />
        </mxCell>
        <mxCell id="6ozdJL18VaXuNYZx4ikK-12" value="&lt;b&gt;&lt;font style=&quot;font-size: 12px;&quot;&gt;Block5~&lt;br&gt;Block12&lt;/font&gt;&lt;/b&gt;" style="text;html=1;strokeColor=none;fillColor=none;align=center;verticalAlign=middle;whiteSpace=wrap;rounded=0;fontSize=14;fontFamily=Times New Roman;rotation=0;" parent="1" vertex="1">
          <mxGeometry x="622" y="138" width="60" height="30" as="geometry" />
        </mxCell>
        <mxCell id="6ozdJL18VaXuNYZx4ikK-15" value="&lt;b&gt;&lt;font style=&quot;font-size: 12px;&quot;&gt;Block13&lt;/font&gt;&lt;/b&gt;" style="text;html=1;strokeColor=none;fillColor=none;align=center;verticalAlign=middle;whiteSpace=wrap;rounded=0;fontSize=14;fontFamily=Times New Roman;rotation=0;" parent="1" vertex="1">
          <mxGeometry x="650" y="378" width="60" height="30" as="geometry" />
        </mxCell>
        <mxCell id="wC2a1kBOCHKzVUe_9aMm-2" value="&lt;b&gt;&lt;font style=&quot;font-size: 12px;&quot;&gt;Block1&lt;/font&gt;&lt;/b&gt;" style="text;html=1;strokeColor=none;fillColor=none;align=center;verticalAlign=middle;whiteSpace=wrap;rounded=0;fontSize=14;fontFamily=Times New Roman;rotation=0;" vertex="1" parent="1">
          <mxGeometry x="310" y="131" width="60" height="30" as="geometry" />
        </mxCell>
        <mxCell id="wC2a1kBOCHKzVUe_9aMm-4" value="&lt;b&gt;&lt;font style=&quot;font-size: 12px;&quot;&gt;Block14&lt;/font&gt;&lt;/b&gt;" style="text;html=1;strokeColor=none;fillColor=none;align=center;verticalAlign=middle;whiteSpace=wrap;rounded=0;fontSize=14;fontFamily=Times New Roman;rotation=0;" vertex="1" parent="1">
          <mxGeometry x="650" y="512" width="60" height="30" as="geometry" />
        </mxCell>
      </root>
    </mxGraphModel>
  </diagram>
  <diagram id="w48w55xHy9CejdCLDtPW" name="第 2 页">
    <mxGraphModel dx="1324" dy="1079" grid="1" gridSize="10" guides="1" tooltips="1" connect="1" arrows="1" fold="1" page="1" pageScale="1" pageWidth="600" pageHeight="700" math="0" shadow="0">
      <root>
        <mxCell id="0" />
        <mxCell id="1" parent="0" />
        <mxCell id="eTO-8e2z-vpNdhMMYDIA-1" value="&lt;font style=&quot;font-size: 14px;&quot;&gt;&lt;b&gt;&lt;font face=&quot;Times New Roman&quot;&gt;Conv 3&lt;/font&gt;x&lt;font face=&quot;Times New Roman&quot;&gt;3, 32, stride=2&lt;/font&gt;&lt;/b&gt;&lt;/font&gt;" style="rounded=0;whiteSpace=wrap;html=1;fillColor=none;rotation=0;" vertex="1" parent="1">
          <mxGeometry x="-540" y="-150" width="160" height="20" as="geometry" />
        </mxCell>
        <mxCell id="KONmvBNLMnKbqV7P2kiA-4" style="edgeStyle=orthogonalEdgeStyle;rounded=0;orthogonalLoop=1;jettySize=auto;html=1;exitX=0.5;exitY=1;exitDx=0;exitDy=0;entryX=0.5;entryY=0;entryDx=0;entryDy=0;fontFamily=Times New Roman;fontSize=14;endArrow=none;endFill=0;strokeWidth=2;" edge="1" parent="1" source="_QqwfNl0AGWl90qonNFT-1" target="n2ZtTMvOaIX6v60DVQm_-1">
          <mxGeometry relative="1" as="geometry" />
        </mxCell>
        <mxCell id="_QqwfNl0AGWl90qonNFT-1" value="&lt;font face=&quot;Times New Roman&quot;&gt;&lt;span style=&quot;font-size: 14px;&quot;&gt;&lt;b&gt;ReLU&lt;/b&gt;&lt;/span&gt;&lt;/font&gt;" style="rounded=0;whiteSpace=wrap;html=1;fillColor=none;rotation=0;" vertex="1" parent="1">
          <mxGeometry x="-540" y="-130" width="160" height="20" as="geometry" />
        </mxCell>
        <mxCell id="n2ZtTMvOaIX6v60DVQm_-1" value="&lt;font style=&quot;font-size: 14px;&quot;&gt;&lt;b&gt;&lt;font face=&quot;Times New Roman&quot;&gt;Conv 3&lt;/font&gt;x&lt;font face=&quot;Times New Roman&quot;&gt;3, 64&lt;/font&gt;&lt;/b&gt;&lt;/font&gt;" style="rounded=0;whiteSpace=wrap;html=1;fillColor=none;rotation=0;" vertex="1" parent="1">
          <mxGeometry x="-540" y="-100" width="160" height="20" as="geometry" />
        </mxCell>
        <mxCell id="KONmvBNLMnKbqV7P2kiA-5" style="edgeStyle=orthogonalEdgeStyle;rounded=0;orthogonalLoop=1;jettySize=auto;html=1;exitX=0.5;exitY=1;exitDx=0;exitDy=0;entryX=0.5;entryY=0;entryDx=0;entryDy=0;fontFamily=Times New Roman;fontSize=14;endArrow=none;endFill=0;strokeWidth=2;" edge="1" parent="1" source="n2ZtTMvOaIX6v60DVQm_-2" target="n2ZtTMvOaIX6v60DVQm_-4">
          <mxGeometry relative="1" as="geometry" />
        </mxCell>
        <mxCell id="n2ZtTMvOaIX6v60DVQm_-2" value="&lt;font face=&quot;Times New Roman&quot;&gt;&lt;span style=&quot;font-size: 14px;&quot;&gt;&lt;b&gt;ReLU&lt;/b&gt;&lt;/span&gt;&lt;/font&gt;" style="rounded=0;whiteSpace=wrap;html=1;fillColor=none;rotation=0;" vertex="1" parent="1">
          <mxGeometry x="-540" y="-80" width="160" height="20" as="geometry" />
        </mxCell>
        <mxCell id="2epIzkR6nm02Q26xvkvk-1" style="edgeStyle=orthogonalEdgeStyle;rounded=0;orthogonalLoop=1;jettySize=auto;html=1;exitX=0.5;exitY=1;exitDx=0;exitDy=0;entryX=0.5;entryY=0;entryDx=0;entryDy=0;strokeWidth=2;fontFamily=Times New Roman;fontSize=14;endArrow=none;endFill=0;" edge="1" parent="1" source="n2ZtTMvOaIX6v60DVQm_-4" target="n2ZtTMvOaIX6v60DVQm_-5">
          <mxGeometry relative="1" as="geometry" />
        </mxCell>
        <mxCell id="n2ZtTMvOaIX6v60DVQm_-4" value="&lt;font face=&quot;Times New Roman&quot;&gt;&lt;span style=&quot;font-size: 14px;&quot;&gt;&lt;b&gt;Block 1&lt;/b&gt;&lt;/span&gt;&lt;/font&gt;" style="rounded=0;whiteSpace=wrap;html=1;fillColor=none;rotation=0;" vertex="1" parent="1">
          <mxGeometry x="-540" y="-40" width="160" height="20" as="geometry" />
        </mxCell>
        <mxCell id="KONmvBNLMnKbqV7P2kiA-7" style="edgeStyle=orthogonalEdgeStyle;rounded=0;orthogonalLoop=1;jettySize=auto;html=1;exitX=0.5;exitY=1;exitDx=0;exitDy=0;entryX=0.5;entryY=0;entryDx=0;entryDy=0;strokeWidth=2;fontFamily=Times New Roman;fontSize=14;endArrow=none;endFill=0;" edge="1" parent="1" source="n2ZtTMvOaIX6v60DVQm_-5" target="n2ZtTMvOaIX6v60DVQm_-6">
          <mxGeometry relative="1" as="geometry" />
        </mxCell>
        <mxCell id="n2ZtTMvOaIX6v60DVQm_-5" value="&lt;font face=&quot;Times New Roman&quot;&gt;&lt;span style=&quot;font-size: 14px;&quot;&gt;&lt;b&gt;Block 2&lt;/b&gt;&lt;/span&gt;&lt;/font&gt;" style="rounded=0;whiteSpace=wrap;html=1;fillColor=none;rotation=0;" vertex="1" parent="1">
          <mxGeometry x="-540" width="160" height="20" as="geometry" />
        </mxCell>
        <mxCell id="KONmvBNLMnKbqV7P2kiA-8" style="edgeStyle=orthogonalEdgeStyle;rounded=0;orthogonalLoop=1;jettySize=auto;html=1;exitX=0.5;exitY=1;exitDx=0;exitDy=0;entryX=0.5;entryY=0;entryDx=0;entryDy=0;strokeWidth=2;fontFamily=Times New Roman;fontSize=14;endArrow=none;endFill=0;" edge="1" parent="1" source="n2ZtTMvOaIX6v60DVQm_-6" target="n2ZtTMvOaIX6v60DVQm_-7">
          <mxGeometry relative="1" as="geometry">
            <mxPoint x="-460" y="80" as="sourcePoint" />
          </mxGeometry>
        </mxCell>
        <mxCell id="n2ZtTMvOaIX6v60DVQm_-6" value="&lt;font face=&quot;Times New Roman&quot;&gt;&lt;span style=&quot;font-size: 14px;&quot;&gt;&lt;b&gt;Block 3&lt;/b&gt;&lt;/span&gt;&lt;/font&gt;" style="rounded=0;whiteSpace=wrap;html=1;fillColor=none;rotation=0;" vertex="1" parent="1">
          <mxGeometry x="-540" y="40" width="160" height="20" as="geometry" />
        </mxCell>
        <mxCell id="KONmvBNLMnKbqV7P2kiA-9" style="edgeStyle=orthogonalEdgeStyle;rounded=0;orthogonalLoop=1;jettySize=auto;html=1;exitX=0.5;exitY=1;exitDx=0;exitDy=0;entryX=0.5;entryY=0;entryDx=0;entryDy=0;strokeWidth=2;fontFamily=Times New Roman;fontSize=14;endArrow=none;endFill=0;" edge="1" parent="1" source="n2ZtTMvOaIX6v60DVQm_-7" target="n2ZtTMvOaIX6v60DVQm_-8">
          <mxGeometry relative="1" as="geometry" />
        </mxCell>
        <mxCell id="n2ZtTMvOaIX6v60DVQm_-7" value="&lt;font face=&quot;Times New Roman&quot;&gt;&lt;span style=&quot;font-size: 14px;&quot;&gt;&lt;b&gt;Block 4&lt;/b&gt;&lt;/span&gt;&lt;/font&gt;" style="rounded=0;whiteSpace=wrap;html=1;fillColor=none;rotation=0;" vertex="1" parent="1">
          <mxGeometry x="-540" y="80" width="160" height="20" as="geometry" />
        </mxCell>
        <mxCell id="KONmvBNLMnKbqV7P2kiA-10" style="edgeStyle=orthogonalEdgeStyle;rounded=0;orthogonalLoop=1;jettySize=auto;html=1;exitX=0.5;exitY=1;exitDx=0;exitDy=0;entryX=0.5;entryY=0;entryDx=0;entryDy=0;strokeWidth=2;fontFamily=Times New Roman;fontSize=14;endArrow=none;endFill=0;" edge="1" parent="1" source="n2ZtTMvOaIX6v60DVQm_-8" target="n2ZtTMvOaIX6v60DVQm_-9">
          <mxGeometry relative="1" as="geometry" />
        </mxCell>
        <mxCell id="n2ZtTMvOaIX6v60DVQm_-8" value="&lt;font face=&quot;Times New Roman&quot;&gt;&lt;span style=&quot;font-size: 14px;&quot;&gt;&lt;b&gt;Block 5&lt;/b&gt;&lt;/span&gt;&lt;/font&gt;" style="rounded=0;whiteSpace=wrap;html=1;fillColor=none;rotation=0;" vertex="1" parent="1">
          <mxGeometry x="-540" y="120" width="160" height="20" as="geometry" />
        </mxCell>
        <mxCell id="KONmvBNLMnKbqV7P2kiA-11" style="edgeStyle=orthogonalEdgeStyle;rounded=0;orthogonalLoop=1;jettySize=auto;html=1;exitX=0.5;exitY=1;exitDx=0;exitDy=0;entryX=0.5;entryY=0;entryDx=0;entryDy=0;strokeWidth=2;fontFamily=Times New Roman;fontSize=14;endArrow=none;endFill=0;" edge="1" parent="1" source="n2ZtTMvOaIX6v60DVQm_-9" target="n2ZtTMvOaIX6v60DVQm_-10">
          <mxGeometry relative="1" as="geometry" />
        </mxCell>
        <mxCell id="n2ZtTMvOaIX6v60DVQm_-9" value="&lt;font face=&quot;Times New Roman&quot;&gt;&lt;span style=&quot;font-size: 14px;&quot;&gt;&lt;b&gt;Block 6&lt;/b&gt;&lt;/span&gt;&lt;/font&gt;" style="rounded=0;whiteSpace=wrap;html=1;fillColor=none;rotation=0;" vertex="1" parent="1">
          <mxGeometry x="-540" y="160" width="160" height="20" as="geometry" />
        </mxCell>
        <mxCell id="KONmvBNLMnKbqV7P2kiA-12" style="edgeStyle=orthogonalEdgeStyle;rounded=0;orthogonalLoop=1;jettySize=auto;html=1;exitX=0.5;exitY=1;exitDx=0;exitDy=0;entryX=0.5;entryY=0;entryDx=0;entryDy=0;strokeWidth=2;fontFamily=Times New Roman;fontSize=14;endArrow=none;endFill=0;" edge="1" parent="1" source="n2ZtTMvOaIX6v60DVQm_-10" target="n2ZtTMvOaIX6v60DVQm_-11">
          <mxGeometry relative="1" as="geometry" />
        </mxCell>
        <mxCell id="n2ZtTMvOaIX6v60DVQm_-10" value="&lt;font face=&quot;Times New Roman&quot;&gt;&lt;span style=&quot;font-size: 14px;&quot;&gt;&lt;b&gt;Block 7&lt;/b&gt;&lt;/span&gt;&lt;/font&gt;" style="rounded=0;whiteSpace=wrap;html=1;fillColor=none;rotation=0;" vertex="1" parent="1">
          <mxGeometry x="-540" y="200" width="160" height="20" as="geometry" />
        </mxCell>
        <mxCell id="KONmvBNLMnKbqV7P2kiA-13" style="edgeStyle=orthogonalEdgeStyle;rounded=0;orthogonalLoop=1;jettySize=auto;html=1;exitX=0.5;exitY=1;exitDx=0;exitDy=0;entryX=0.5;entryY=0;entryDx=0;entryDy=0;strokeWidth=2;fontFamily=Times New Roman;fontSize=14;endArrow=none;endFill=0;" edge="1" parent="1" source="n2ZtTMvOaIX6v60DVQm_-11" target="n2ZtTMvOaIX6v60DVQm_-12">
          <mxGeometry relative="1" as="geometry" />
        </mxCell>
        <mxCell id="n2ZtTMvOaIX6v60DVQm_-11" value="&lt;font face=&quot;Times New Roman&quot;&gt;&lt;span style=&quot;font-size: 14px;&quot;&gt;&lt;b&gt;Block 8&lt;/b&gt;&lt;/span&gt;&lt;/font&gt;" style="rounded=0;whiteSpace=wrap;html=1;fillColor=none;rotation=0;" vertex="1" parent="1">
          <mxGeometry x="-540" y="240" width="160" height="20" as="geometry" />
        </mxCell>
        <mxCell id="KONmvBNLMnKbqV7P2kiA-14" style="edgeStyle=orthogonalEdgeStyle;rounded=0;orthogonalLoop=1;jettySize=auto;html=1;exitX=0.5;exitY=1;exitDx=0;exitDy=0;entryX=0.5;entryY=0;entryDx=0;entryDy=0;strokeWidth=2;fontFamily=Times New Roman;fontSize=14;endArrow=none;endFill=0;" edge="1" parent="1" source="n2ZtTMvOaIX6v60DVQm_-12" target="n2ZtTMvOaIX6v60DVQm_-13">
          <mxGeometry relative="1" as="geometry" />
        </mxCell>
        <mxCell id="n2ZtTMvOaIX6v60DVQm_-12" value="&lt;font face=&quot;Times New Roman&quot;&gt;&lt;span style=&quot;font-size: 14px;&quot;&gt;&lt;b&gt;Block 9&lt;/b&gt;&lt;/span&gt;&lt;/font&gt;" style="rounded=0;whiteSpace=wrap;html=1;fillColor=none;rotation=0;" vertex="1" parent="1">
          <mxGeometry x="-540" y="280" width="160" height="20" as="geometry" />
        </mxCell>
        <mxCell id="KONmvBNLMnKbqV7P2kiA-15" style="edgeStyle=orthogonalEdgeStyle;rounded=0;orthogonalLoop=1;jettySize=auto;html=1;exitX=0.5;exitY=1;exitDx=0;exitDy=0;entryX=0.5;entryY=0;entryDx=0;entryDy=0;strokeWidth=2;fontFamily=Times New Roman;fontSize=14;endArrow=none;endFill=0;" edge="1" parent="1" source="n2ZtTMvOaIX6v60DVQm_-13" target="n2ZtTMvOaIX6v60DVQm_-14">
          <mxGeometry relative="1" as="geometry" />
        </mxCell>
        <mxCell id="n2ZtTMvOaIX6v60DVQm_-13" value="&lt;font face=&quot;Times New Roman&quot;&gt;&lt;span style=&quot;font-size: 14px;&quot;&gt;&lt;b&gt;Block 10&lt;/b&gt;&lt;/span&gt;&lt;/font&gt;" style="rounded=0;whiteSpace=wrap;html=1;fillColor=none;rotation=0;" vertex="1" parent="1">
          <mxGeometry x="-540" y="320" width="160" height="20" as="geometry" />
        </mxCell>
        <mxCell id="KONmvBNLMnKbqV7P2kiA-16" style="edgeStyle=orthogonalEdgeStyle;rounded=0;orthogonalLoop=1;jettySize=auto;html=1;exitX=0.5;exitY=1;exitDx=0;exitDy=0;entryX=0.5;entryY=0;entryDx=0;entryDy=0;strokeWidth=2;fontFamily=Times New Roman;fontSize=14;endArrow=none;endFill=0;" edge="1" parent="1" source="n2ZtTMvOaIX6v60DVQm_-14" target="n2ZtTMvOaIX6v60DVQm_-15">
          <mxGeometry relative="1" as="geometry" />
        </mxCell>
        <mxCell id="n2ZtTMvOaIX6v60DVQm_-14" value="&lt;font face=&quot;Times New Roman&quot;&gt;&lt;span style=&quot;font-size: 14px;&quot;&gt;&lt;b&gt;Block 11&lt;/b&gt;&lt;/span&gt;&lt;/font&gt;" style="rounded=0;whiteSpace=wrap;html=1;fillColor=none;rotation=0;" vertex="1" parent="1">
          <mxGeometry x="-540" y="360" width="160" height="20" as="geometry" />
        </mxCell>
        <mxCell id="KONmvBNLMnKbqV7P2kiA-17" style="edgeStyle=orthogonalEdgeStyle;rounded=0;orthogonalLoop=1;jettySize=auto;html=1;exitX=0.5;exitY=1;exitDx=0;exitDy=0;entryX=0.5;entryY=0;entryDx=0;entryDy=0;strokeWidth=2;fontFamily=Times New Roman;fontSize=14;endArrow=none;endFill=0;" edge="1" parent="1" source="n2ZtTMvOaIX6v60DVQm_-15" target="wXEiDKurxxV8XuHaEOwZ-6">
          <mxGeometry relative="1" as="geometry" />
        </mxCell>
        <mxCell id="n2ZtTMvOaIX6v60DVQm_-15" value="&lt;font face=&quot;Times New Roman&quot;&gt;&lt;span style=&quot;font-size: 14px;&quot;&gt;&lt;b&gt;Block 12&lt;/b&gt;&lt;/span&gt;&lt;/font&gt;" style="rounded=0;whiteSpace=wrap;html=1;fillColor=none;rotation=0;" vertex="1" parent="1">
          <mxGeometry x="-540" y="400" width="160" height="20" as="geometry" />
        </mxCell>
        <mxCell id="wXEiDKurxxV8XuHaEOwZ-1" value="&lt;font style=&quot;font-size: 14px;&quot;&gt;&lt;b&gt;&lt;font face=&quot;Times New Roman&quot;&gt;SeparableConv 3&lt;/font&gt;x&lt;font face=&quot;Times New Roman&quot;&gt;3, 2048&lt;/font&gt;&lt;/b&gt;&lt;/font&gt;" style="rounded=0;whiteSpace=wrap;html=1;fillColor=none;rotation=0;" vertex="1" parent="1">
          <mxGeometry x="-540" y="500" width="160" height="20" as="geometry" />
        </mxCell>
        <mxCell id="KONmvBNLMnKbqV7P2kiA-19" style="edgeStyle=orthogonalEdgeStyle;rounded=0;orthogonalLoop=1;jettySize=auto;html=1;exitX=0.5;exitY=1;exitDx=0;exitDy=0;entryX=0.5;entryY=0;entryDx=0;entryDy=0;strokeWidth=2;fontFamily=Times New Roman;fontSize=14;endArrow=none;endFill=0;" edge="1" parent="1" source="wXEiDKurxxV8XuHaEOwZ-2" target="wXEiDKurxxV8XuHaEOwZ-3">
          <mxGeometry relative="1" as="geometry" />
        </mxCell>
        <mxCell id="wXEiDKurxxV8XuHaEOwZ-2" value="&lt;font face=&quot;Times New Roman&quot;&gt;&lt;span style=&quot;font-size: 14px;&quot;&gt;&lt;b&gt;ReLU&lt;/b&gt;&lt;/span&gt;&lt;/font&gt;" style="rounded=0;whiteSpace=wrap;html=1;fillColor=none;rotation=0;" vertex="1" parent="1">
          <mxGeometry x="-540" y="520" width="160" height="20" as="geometry" />
        </mxCell>
        <mxCell id="KONmvBNLMnKbqV7P2kiA-20" style="edgeStyle=orthogonalEdgeStyle;rounded=0;orthogonalLoop=1;jettySize=auto;html=1;exitX=0.5;exitY=1;exitDx=0;exitDy=0;entryX=0.5;entryY=0;entryDx=0;entryDy=0;strokeWidth=2;fontFamily=Times New Roman;fontSize=14;endArrow=none;endFill=0;" edge="1" parent="1" source="wXEiDKurxxV8XuHaEOwZ-3" target="wXEiDKurxxV8XuHaEOwZ-4">
          <mxGeometry relative="1" as="geometry" />
        </mxCell>
        <mxCell id="wXEiDKurxxV8XuHaEOwZ-3" value="&lt;font face=&quot;Times New Roman&quot;&gt;&lt;span style=&quot;font-size: 14px;&quot;&gt;&lt;b&gt;GlobalAveragePooling&lt;/b&gt;&lt;/span&gt;&lt;/font&gt;" style="rounded=0;whiteSpace=wrap;html=1;fillColor=none;rotation=0;" vertex="1" parent="1">
          <mxGeometry x="-540" y="550" width="160" height="20" as="geometry" />
        </mxCell>
        <mxCell id="KONmvBNLMnKbqV7P2kiA-21" style="edgeStyle=orthogonalEdgeStyle;rounded=0;orthogonalLoop=1;jettySize=auto;html=1;exitX=0.5;exitY=1;exitDx=0;exitDy=0;entryX=0.5;entryY=0;entryDx=0;entryDy=0;strokeWidth=2;fontFamily=Times New Roman;fontSize=14;endArrow=none;endFill=0;" edge="1" parent="1" source="wXEiDKurxxV8XuHaEOwZ-4" target="wXEiDKurxxV8XuHaEOwZ-5">
          <mxGeometry relative="1" as="geometry" />
        </mxCell>
        <mxCell id="wXEiDKurxxV8XuHaEOwZ-4" value="&lt;font face=&quot;Times New Roman&quot;&gt;&lt;span style=&quot;font-size: 14px;&quot;&gt;&lt;b&gt;FC&lt;/b&gt;&lt;/span&gt;&lt;/font&gt;" style="rounded=0;whiteSpace=wrap;html=1;fillColor=none;rotation=0;" vertex="1" parent="1">
          <mxGeometry x="-540" y="580" width="160" height="20" as="geometry" />
        </mxCell>
        <mxCell id="wXEiDKurxxV8XuHaEOwZ-5" value="&lt;font face=&quot;Times New Roman&quot;&gt;&lt;span style=&quot;font-size: 14px;&quot;&gt;&lt;b&gt;Softmax&lt;/b&gt;&lt;/span&gt;&lt;/font&gt;" style="rounded=0;whiteSpace=wrap;html=1;fillColor=none;rotation=0;" vertex="1" parent="1">
          <mxGeometry x="-540" y="610" width="160" height="20" as="geometry" />
        </mxCell>
        <mxCell id="wXEiDKurxxV8XuHaEOwZ-6" value="&lt;font style=&quot;font-size: 14px;&quot;&gt;&lt;b&gt;&lt;font face=&quot;Times New Roman&quot;&gt;SeparableConv 3&lt;/font&gt;x&lt;font face=&quot;Times New Roman&quot;&gt;3, 1536&lt;/font&gt;&lt;/b&gt;&lt;/font&gt;" style="rounded=0;whiteSpace=wrap;html=1;fillColor=none;rotation=0;" vertex="1" parent="1">
          <mxGeometry x="-540" y="440" width="160" height="20" as="geometry" />
        </mxCell>
        <mxCell id="KONmvBNLMnKbqV7P2kiA-18" style="edgeStyle=orthogonalEdgeStyle;rounded=0;orthogonalLoop=1;jettySize=auto;html=1;exitX=0.5;exitY=1;exitDx=0;exitDy=0;entryX=0.5;entryY=0;entryDx=0;entryDy=0;strokeWidth=2;fontFamily=Times New Roman;fontSize=14;endArrow=none;endFill=0;" edge="1" parent="1" source="wXEiDKurxxV8XuHaEOwZ-7" target="wXEiDKurxxV8XuHaEOwZ-1">
          <mxGeometry relative="1" as="geometry" />
        </mxCell>
        <mxCell id="wXEiDKurxxV8XuHaEOwZ-7" value="&lt;font face=&quot;Times New Roman&quot;&gt;&lt;span style=&quot;font-size: 14px;&quot;&gt;&lt;b&gt;ReLU&lt;/b&gt;&lt;/span&gt;&lt;/font&gt;" style="rounded=0;whiteSpace=wrap;html=1;fillColor=none;rotation=0;" vertex="1" parent="1">
          <mxGeometry x="-540" y="460" width="160" height="20" as="geometry" />
        </mxCell>
        <mxCell id="KONmvBNLMnKbqV7P2kiA-22" value="" style="endArrow=classic;html=1;rounded=0;strokeWidth=2;fontFamily=Times New Roman;fontSize=14;" edge="1" parent="1">
          <mxGeometry width="50" height="50" relative="1" as="geometry">
            <mxPoint x="-460.34000000000003" y="630" as="sourcePoint" />
            <mxPoint x="-460.34000000000003" y="660" as="targetPoint" />
          </mxGeometry>
        </mxCell>
      </root>
    </mxGraphModel>
  </diagram>
  <diagram id="6wDmoO2wmUU_yzpBQBkJ" name="第 3 页">
    <mxGraphModel dx="1050" dy="549" grid="1" gridSize="10" guides="1" tooltips="1" connect="1" arrows="1" fold="1" page="1" pageScale="1" pageWidth="600" pageHeight="700" math="0" shadow="0">
      <root>
        <mxCell id="0" />
        <mxCell id="1" parent="0" />
        <mxCell id="w5DGVAd5TixzhkrASVBP-2" value="" style="shape=cube;whiteSpace=wrap;html=1;boundedLbl=1;backgroundOutline=1;darkOpacity=0.05;darkOpacity2=0.1;fontFamily=Times New Roman;fontSize=14;fillColor=none;flipH=1;shadow=0;" vertex="1" parent="1">
          <mxGeometry x="10" y="180" width="30" height="140" as="geometry" />
        </mxCell>
        <mxCell id="w5DGVAd5TixzhkrASVBP-3" value="" style="shape=cube;whiteSpace=wrap;html=1;boundedLbl=1;backgroundOutline=1;darkOpacity=0.05;darkOpacity2=0.1;fontFamily=Times New Roman;fontSize=14;fillColor=none;flipH=1;shadow=0;" vertex="1" parent="1">
          <mxGeometry x="60" y="200" width="30" height="100" as="geometry" />
        </mxCell>
        <mxCell id="w5DGVAd5TixzhkrASVBP-4" value="" style="shape=cube;whiteSpace=wrap;html=1;boundedLbl=1;backgroundOutline=1;darkOpacity=0.05;darkOpacity2=0.1;fontFamily=Times New Roman;fontSize=14;fillColor=none;flipH=1;shadow=0;" vertex="1" parent="1">
          <mxGeometry x="110" y="215" width="30" height="70" as="geometry" />
        </mxCell>
        <mxCell id="w5DGVAd5TixzhkrASVBP-5" value="" style="shape=cube;whiteSpace=wrap;html=1;boundedLbl=1;backgroundOutline=1;darkOpacity=0.05;darkOpacity2=0.1;fontFamily=Times New Roman;fontSize=14;fillColor=none;flipH=1;shadow=0;size=10;" vertex="1" parent="1">
          <mxGeometry x="160" y="221.25" width="20" height="45" as="geometry" />
        </mxCell>
        <mxCell id="w5DGVAd5TixzhkrASVBP-7" value="" style="shape=cube;whiteSpace=wrap;html=1;boundedLbl=1;backgroundOutline=1;darkOpacity=0.05;darkOpacity2=0.1;fontFamily=Times New Roman;fontSize=14;fillColor=none;flipH=1;shadow=0;size=10;" vertex="1" parent="1">
          <mxGeometry x="200" y="221.25" width="20" height="45" as="geometry" />
        </mxCell>
        <mxCell id="w5DGVAd5TixzhkrASVBP-8" value="" style="shape=cube;whiteSpace=wrap;html=1;boundedLbl=1;backgroundOutline=1;darkOpacity=0.05;darkOpacity2=0.1;fontFamily=Times New Roman;fontSize=14;fillColor=none;flipH=1;shadow=0;size=10;" vertex="1" parent="1">
          <mxGeometry x="240" y="221.25" width="20" height="45" as="geometry" />
        </mxCell>
        <mxCell id="w5DGVAd5TixzhkrASVBP-9" value="" style="shape=cube;whiteSpace=wrap;html=1;boundedLbl=1;backgroundOutline=1;darkOpacity=0.05;darkOpacity2=0.1;fontFamily=Times New Roman;fontSize=14;fillColor=none;flipH=1;shadow=0;size=10;" vertex="1" parent="1">
          <mxGeometry x="280" y="221.25" width="20" height="45" as="geometry" />
        </mxCell>
        <mxCell id="w5DGVAd5TixzhkrASVBP-10" value="" style="shape=cube;whiteSpace=wrap;html=1;boundedLbl=1;backgroundOutline=1;darkOpacity=0.05;darkOpacity2=0.1;fontFamily=Times New Roman;fontSize=14;fillColor=none;flipH=1;shadow=0;size=10;" vertex="1" parent="1">
          <mxGeometry x="320" y="221.25" width="20" height="45" as="geometry" />
        </mxCell>
        <mxCell id="lmYigqSCSXlCIeFbK-83-1" value="" style="shape=cube;whiteSpace=wrap;html=1;boundedLbl=1;backgroundOutline=1;darkOpacity=0.05;darkOpacity2=0.1;fontFamily=Times New Roman;fontSize=14;fillColor=none;flipH=1;shadow=0;size=10;" vertex="1" parent="1">
          <mxGeometry x="360" y="221.25" width="20" height="45" as="geometry" />
        </mxCell>
        <mxCell id="lmYigqSCSXlCIeFbK-83-2" value="" style="shape=cube;whiteSpace=wrap;html=1;boundedLbl=1;backgroundOutline=1;darkOpacity=0.05;darkOpacity2=0.1;fontFamily=Times New Roman;fontSize=14;fillColor=none;flipH=1;shadow=0;size=10;" vertex="1" parent="1">
          <mxGeometry x="400" y="221.25" width="20" height="45" as="geometry" />
        </mxCell>
        <mxCell id="lmYigqSCSXlCIeFbK-83-3" value="" style="shape=cube;whiteSpace=wrap;html=1;boundedLbl=1;backgroundOutline=1;darkOpacity=0.05;darkOpacity2=0.1;fontFamily=Times New Roman;fontSize=14;fillColor=none;flipH=1;shadow=0;size=10;" vertex="1" parent="1">
          <mxGeometry x="440" y="221.25" width="20" height="45" as="geometry" />
        </mxCell>
        <mxCell id="lmYigqSCSXlCIeFbK-83-4" value="" style="shape=cube;whiteSpace=wrap;html=1;boundedLbl=1;backgroundOutline=1;darkOpacity=0.05;darkOpacity2=0.1;fontFamily=Times New Roman;fontSize=14;fillColor=none;flipH=1;shadow=0;size=10;" vertex="1" parent="1">
          <mxGeometry x="480" y="227.5" width="20" height="32.5" as="geometry" />
        </mxCell>
      </root>
    </mxGraphModel>
  </diagram>
  <diagram id="ClZJEBdtc5CBa_iQ9WVr" name="第 4 页">
    <mxGraphModel dx="875" dy="458" grid="1" gridSize="10" guides="1" tooltips="1" connect="1" arrows="1" fold="1" page="1" pageScale="1" pageWidth="600" pageHeight="700" math="0" shadow="0">
      <root>
        <mxCell id="0" />
        <mxCell id="1" parent="0" />
        <mxCell id="hMKVX4WMdSxF5EIK3SUI-1" value="" style="rounded=0;whiteSpace=wrap;html=1;fillColor=none;" vertex="1" parent="1">
          <mxGeometry x="30" y="59" width="260" height="612" as="geometry" />
        </mxCell>
        <mxCell id="hMKVX4WMdSxF5EIK3SUI-2" value="&lt;font style=&quot;font-size: 14px;&quot;&gt;&lt;font face=&quot;Times New Roman&quot;&gt;Conv 3&lt;/font&gt;x&lt;font face=&quot;Times New Roman&quot;&gt;3, 32, stride=2&lt;/font&gt;&lt;/font&gt;" style="rounded=0;whiteSpace=wrap;html=1;fillColor=none;" vertex="1" parent="1">
          <mxGeometry x="120" y="101" width="160" height="20" as="geometry" />
        </mxCell>
        <mxCell id="hMKVX4WMdSxF5EIK3SUI-3" value="&lt;font face=&quot;Times New Roman&quot;&gt;&lt;span style=&quot;font-size: 14px;&quot;&gt;ReLU&lt;/span&gt;&lt;/font&gt;" style="rounded=0;whiteSpace=wrap;html=1;fillColor=none;" vertex="1" parent="1">
          <mxGeometry x="120" y="121" width="160" height="20" as="geometry" />
        </mxCell>
        <mxCell id="hMKVX4WMdSxF5EIK3SUI-4" value="&lt;font style=&quot;font-size: 14px;&quot;&gt;&lt;font face=&quot;Times New Roman&quot;&gt;Conv 3&lt;/font&gt;x&lt;font face=&quot;Times New Roman&quot;&gt;3, 64&lt;/font&gt;&lt;/font&gt;" style="rounded=0;whiteSpace=wrap;html=1;fillColor=none;" vertex="1" parent="1">
          <mxGeometry x="120" y="151" width="160" height="20" as="geometry" />
        </mxCell>
        <mxCell id="hMKVX4WMdSxF5EIK3SUI-5" value="&lt;font face=&quot;Times New Roman&quot;&gt;&lt;span style=&quot;font-size: 14px;&quot;&gt;ReLU&lt;/span&gt;&lt;/font&gt;" style="rounded=0;whiteSpace=wrap;html=1;fillColor=none;" vertex="1" parent="1">
          <mxGeometry x="120" y="171" width="160" height="20" as="geometry" />
        </mxCell>
        <mxCell id="hMKVX4WMdSxF5EIK3SUI-6" value="&lt;font style=&quot;font-size: 14px;&quot;&gt;&lt;font face=&quot;Times New Roman&quot;&gt;SeparableConv 3&lt;/font&gt;x&lt;font face=&quot;Times New Roman&quot;&gt;3, 128&lt;/font&gt;&lt;/font&gt;" style="rounded=0;whiteSpace=wrap;html=1;fillColor=#f8cecc;strokeColor=default;" vertex="1" parent="1">
          <mxGeometry x="120" y="221" width="160" height="20" as="geometry" />
        </mxCell>
        <mxCell id="hMKVX4WMdSxF5EIK3SUI-7" value="&lt;font face=&quot;Times New Roman&quot;&gt;&lt;span style=&quot;font-size: 14px;&quot;&gt;ReLU&lt;/span&gt;&lt;/font&gt;" style="rounded=0;whiteSpace=wrap;html=1;fillColor=#f8cecc;strokeColor=default;" vertex="1" parent="1">
          <mxGeometry x="120" y="251" width="160" height="20" as="geometry" />
        </mxCell>
        <mxCell id="hMKVX4WMdSxF5EIK3SUI-8" value="&lt;font style=&quot;font-size: 14px;&quot;&gt;&lt;font face=&quot;Times New Roman&quot;&gt;SeparableConv 3&lt;/font&gt;x&lt;font face=&quot;Times New Roman&quot;&gt;3, 128&lt;/font&gt;&lt;/font&gt;" style="rounded=0;whiteSpace=wrap;html=1;fillColor=#f8cecc;strokeColor=default;" vertex="1" parent="1">
          <mxGeometry x="120" y="271" width="160" height="20" as="geometry" />
        </mxCell>
        <mxCell id="hMKVX4WMdSxF5EIK3SUI-9" style="edgeStyle=orthogonalEdgeStyle;rounded=0;orthogonalLoop=1;jettySize=auto;html=1;exitX=0.5;exitY=1;exitDx=0;exitDy=0;entryX=0.5;entryY=0;entryDx=0;entryDy=0;fontFamily=Verdana;fontSize=14;endArrow=none;endFill=0;" edge="1" parent="1" source="hMKVX4WMdSxF5EIK3SUI-10" target="hMKVX4WMdSxF5EIK3SUI-25">
          <mxGeometry relative="1" as="geometry" />
        </mxCell>
        <mxCell id="hMKVX4WMdSxF5EIK3SUI-10" value="&lt;font style=&quot;font-size: 14px;&quot;&gt;&lt;font face=&quot;Times New Roman&quot;&gt;Maxpooling&amp;nbsp;&lt;/font&gt;&lt;font style=&quot;border-color: var(--border-color);&quot; face=&quot;Times New Roman&quot;&gt;3&lt;/font&gt;&lt;font style=&quot;border-color: var(--border-color);&quot;&gt;x&lt;/font&gt;&lt;font style=&quot;border-color: var(--border-color);&quot; face=&quot;Times New Roman&quot;&gt;3&lt;/font&gt;&lt;font face=&quot;Times New Roman&quot;&gt;, stride=2&lt;/font&gt;&lt;/font&gt;" style="rounded=0;whiteSpace=wrap;html=1;fillColor=#f8cecc;strokeColor=default;" vertex="1" parent="1">
          <mxGeometry x="120" y="301" width="160" height="20" as="geometry" />
        </mxCell>
        <mxCell id="hMKVX4WMdSxF5EIK3SUI-11" style="edgeStyle=orthogonalEdgeStyle;rounded=0;orthogonalLoop=1;jettySize=auto;html=1;exitX=0.5;exitY=1;exitDx=0;exitDy=0;entryX=0.5;entryY=0;entryDx=0;entryDy=0;fontFamily=Verdana;fontSize=14;endArrow=none;endFill=0;" edge="1" parent="1" source="hMKVX4WMdSxF5EIK3SUI-12" target="hMKVX4WMdSxF5EIK3SUI-13">
          <mxGeometry relative="1" as="geometry" />
        </mxCell>
        <mxCell id="hMKVX4WMdSxF5EIK3SUI-12" value="&lt;font style=&quot;font-size: 14px;&quot;&gt;&lt;font face=&quot;Times New Roman&quot;&gt;SeparableConv 3&lt;/font&gt;x&lt;font face=&quot;Times New Roman&quot;&gt;3, 256&lt;/font&gt;&lt;/font&gt;" style="rounded=0;whiteSpace=wrap;html=1;fillColor=#66B2FF;" vertex="1" parent="1">
          <mxGeometry x="120" y="371" width="160" height="20" as="geometry" />
        </mxCell>
        <mxCell id="hMKVX4WMdSxF5EIK3SUI-13" value="&lt;font face=&quot;Times New Roman&quot;&gt;&lt;span style=&quot;font-size: 14px;&quot;&gt;ReLU&lt;/span&gt;&lt;/font&gt;" style="rounded=0;whiteSpace=wrap;html=1;fillColor=#66B2FF;" vertex="1" parent="1">
          <mxGeometry x="120" y="401" width="160" height="20" as="geometry" />
        </mxCell>
        <mxCell id="hMKVX4WMdSxF5EIK3SUI-14" style="edgeStyle=orthogonalEdgeStyle;rounded=0;orthogonalLoop=1;jettySize=auto;html=1;exitX=0.5;exitY=1;exitDx=0;exitDy=0;entryX=0.5;entryY=0;entryDx=0;entryDy=0;fontFamily=Verdana;fontSize=14;endArrow=none;endFill=0;" edge="1" parent="1" source="hMKVX4WMdSxF5EIK3SUI-15" target="hMKVX4WMdSxF5EIK3SUI-17">
          <mxGeometry relative="1" as="geometry" />
        </mxCell>
        <mxCell id="hMKVX4WMdSxF5EIK3SUI-15" value="&lt;font style=&quot;font-size: 14px;&quot;&gt;&lt;font face=&quot;Times New Roman&quot;&gt;SeparableConv 3&lt;/font&gt;x&lt;font face=&quot;Times New Roman&quot;&gt;3, 256&lt;/font&gt;&lt;/font&gt;" style="rounded=0;whiteSpace=wrap;html=1;fillColor=#66B2FF;" vertex="1" parent="1">
          <mxGeometry x="120" y="421" width="160" height="20" as="geometry" />
        </mxCell>
        <mxCell id="hMKVX4WMdSxF5EIK3SUI-16" style="edgeStyle=orthogonalEdgeStyle;rounded=0;orthogonalLoop=1;jettySize=auto;html=1;exitX=0.5;exitY=1;exitDx=0;exitDy=0;entryX=0.5;entryY=0;entryDx=0;entryDy=0;fontFamily=Verdana;fontSize=14;endArrow=none;endFill=0;" edge="1" parent="1" source="hMKVX4WMdSxF5EIK3SUI-17" target="hMKVX4WMdSxF5EIK3SUI-35">
          <mxGeometry relative="1" as="geometry" />
        </mxCell>
        <mxCell id="hMKVX4WMdSxF5EIK3SUI-17" value="&lt;font style=&quot;font-size: 14px;&quot;&gt;&lt;font face=&quot;Times New Roman&quot;&gt;Maxpooling&amp;nbsp;&lt;/font&gt;&lt;font style=&quot;border-color: var(--border-color);&quot; face=&quot;Times New Roman&quot;&gt;3&lt;/font&gt;&lt;font style=&quot;border-color: var(--border-color);&quot;&gt;x&lt;/font&gt;&lt;font style=&quot;border-color: var(--border-color);&quot; face=&quot;Times New Roman&quot;&gt;3&lt;/font&gt;&lt;font face=&quot;Times New Roman&quot;&gt;, stride=2&lt;/font&gt;&lt;/font&gt;" style="rounded=0;whiteSpace=wrap;html=1;fillColor=#66B2FF;" vertex="1" parent="1">
          <mxGeometry x="120" y="451" width="160" height="20" as="geometry" />
        </mxCell>
        <mxCell id="hMKVX4WMdSxF5EIK3SUI-18" value="&lt;font face=&quot;Times New Roman&quot;&gt;&lt;span style=&quot;font-size: 14px;&quot;&gt;ReLU&lt;/span&gt;&lt;/font&gt;" style="rounded=0;whiteSpace=wrap;html=1;fillColor=#66B2FF;strokeColor=default;" vertex="1" parent="1">
          <mxGeometry x="120" y="351" width="160" height="20" as="geometry" />
        </mxCell>
        <mxCell id="hMKVX4WMdSxF5EIK3SUI-19" value="" style="endArrow=none;html=1;rounded=0;fontFamily=Verdana;fontSize=14;" edge="1" parent="1">
          <mxGeometry width="50" height="50" relative="1" as="geometry">
            <mxPoint x="199.57999999999998" y="101" as="sourcePoint" />
            <mxPoint x="199.57999999999998" y="81" as="targetPoint" />
          </mxGeometry>
        </mxCell>
        <mxCell id="hMKVX4WMdSxF5EIK3SUI-20" value="" style="endArrow=none;html=1;rounded=0;fontFamily=Verdana;fontSize=14;" edge="1" parent="1">
          <mxGeometry width="50" height="50" relative="1" as="geometry">
            <mxPoint x="199.58" y="151" as="sourcePoint" />
            <mxPoint x="199.58" y="141" as="targetPoint" />
          </mxGeometry>
        </mxCell>
        <mxCell id="hMKVX4WMdSxF5EIK3SUI-21" value="" style="endArrow=none;html=1;rounded=0;fontFamily=Verdana;fontSize=14;" edge="1" parent="1">
          <mxGeometry width="50" height="50" relative="1" as="geometry">
            <mxPoint x="199.58" y="221" as="sourcePoint" />
            <mxPoint x="199.58" y="191" as="targetPoint" />
          </mxGeometry>
        </mxCell>
        <mxCell id="hMKVX4WMdSxF5EIK3SUI-22" value="" style="endArrow=none;html=1;rounded=0;fontFamily=Verdana;fontSize=14;" edge="1" parent="1">
          <mxGeometry width="50" height="50" relative="1" as="geometry">
            <mxPoint x="199.58" y="251" as="sourcePoint" />
            <mxPoint x="199.58" y="241" as="targetPoint" />
          </mxGeometry>
        </mxCell>
        <mxCell id="hMKVX4WMdSxF5EIK3SUI-23" value="" style="endArrow=none;html=1;rounded=0;fontFamily=Verdana;fontSize=14;" edge="1" parent="1">
          <mxGeometry width="50" height="50" relative="1" as="geometry">
            <mxPoint x="199.58" y="301" as="sourcePoint" />
            <mxPoint x="199.58" y="291" as="targetPoint" />
          </mxGeometry>
        </mxCell>
        <mxCell id="hMKVX4WMdSxF5EIK3SUI-24" style="edgeStyle=orthogonalEdgeStyle;rounded=0;orthogonalLoop=1;jettySize=auto;html=1;exitX=0.5;exitY=1;exitDx=0;exitDy=0;entryX=0.5;entryY=0;entryDx=0;entryDy=0;fontFamily=Verdana;fontSize=14;endArrow=none;endFill=0;" edge="1" parent="1" source="hMKVX4WMdSxF5EIK3SUI-25" target="hMKVX4WMdSxF5EIK3SUI-18">
          <mxGeometry relative="1" as="geometry" />
        </mxCell>
        <mxCell id="hMKVX4WMdSxF5EIK3SUI-25" value="" style="shape=orEllipse;perimeter=ellipsePerimeter;whiteSpace=wrap;html=1;backgroundOutline=1;fontFamily=Verdana;fontSize=14;fillColor=none;" vertex="1" parent="1">
          <mxGeometry x="192" y="328" width="16" height="16" as="geometry" />
        </mxCell>
        <mxCell id="hMKVX4WMdSxF5EIK3SUI-26" style="edgeStyle=orthogonalEdgeStyle;rounded=0;orthogonalLoop=1;jettySize=auto;html=1;exitX=0.5;exitY=1;exitDx=0;exitDy=0;entryX=0.5;entryY=0;entryDx=0;entryDy=0;fontFamily=Verdana;fontSize=14;endArrow=none;endFill=0;" edge="1" parent="1" source="hMKVX4WMdSxF5EIK3SUI-27" target="hMKVX4WMdSxF5EIK3SUI-28">
          <mxGeometry relative="1" as="geometry" />
        </mxCell>
        <mxCell id="hMKVX4WMdSxF5EIK3SUI-27" value="&lt;font style=&quot;font-size: 14px;&quot;&gt;&lt;font face=&quot;Times New Roman&quot;&gt;SeparableConv 3&lt;/font&gt;x&lt;font face=&quot;Times New Roman&quot;&gt;3, 728&lt;/font&gt;&lt;/font&gt;" style="rounded=0;whiteSpace=wrap;html=1;fillColor=#e1d5e7;strokeColor=default;" vertex="1" parent="1">
          <mxGeometry x="120" y="522" width="160" height="20" as="geometry" />
        </mxCell>
        <mxCell id="hMKVX4WMdSxF5EIK3SUI-28" value="&lt;font face=&quot;Times New Roman&quot;&gt;&lt;span style=&quot;font-size: 14px;&quot;&gt;ReLU&lt;/span&gt;&lt;/font&gt;" style="rounded=0;whiteSpace=wrap;html=1;fillColor=#e1d5e7;strokeColor=default;" vertex="1" parent="1">
          <mxGeometry x="120" y="552" width="160" height="20" as="geometry" />
        </mxCell>
        <mxCell id="hMKVX4WMdSxF5EIK3SUI-29" style="edgeStyle=orthogonalEdgeStyle;rounded=0;orthogonalLoop=1;jettySize=auto;html=1;exitX=0.5;exitY=1;exitDx=0;exitDy=0;entryX=0.5;entryY=0;entryDx=0;entryDy=0;fontFamily=Verdana;fontSize=14;endArrow=none;endFill=0;" edge="1" parent="1" source="hMKVX4WMdSxF5EIK3SUI-30" target="hMKVX4WMdSxF5EIK3SUI-32">
          <mxGeometry relative="1" as="geometry" />
        </mxCell>
        <mxCell id="hMKVX4WMdSxF5EIK3SUI-30" value="&lt;font style=&quot;font-size: 14px;&quot;&gt;&lt;font face=&quot;Times New Roman&quot;&gt;SeparableConv 3&lt;/font&gt;x&lt;font face=&quot;Times New Roman&quot;&gt;3, 728&lt;/font&gt;&lt;/font&gt;" style="rounded=0;whiteSpace=wrap;html=1;fillColor=#e1d5e7;strokeColor=default;" vertex="1" parent="1">
          <mxGeometry x="120" y="572" width="160" height="20" as="geometry" />
        </mxCell>
        <mxCell id="hMKVX4WMdSxF5EIK3SUI-31" style="edgeStyle=orthogonalEdgeStyle;rounded=0;orthogonalLoop=1;jettySize=auto;html=1;exitX=0.5;exitY=1;exitDx=0;exitDy=0;entryX=0.5;entryY=0;entryDx=0;entryDy=0;fontFamily=Times New Roman;fontSize=14;endArrow=none;endFill=0;" edge="1" parent="1" source="hMKVX4WMdSxF5EIK3SUI-32" target="hMKVX4WMdSxF5EIK3SUI-38">
          <mxGeometry relative="1" as="geometry" />
        </mxCell>
        <mxCell id="hMKVX4WMdSxF5EIK3SUI-32" value="&lt;font style=&quot;font-size: 14px;&quot;&gt;&lt;font face=&quot;Times New Roman&quot;&gt;Maxpooling&amp;nbsp;&lt;/font&gt;&lt;font style=&quot;border-color: var(--border-color);&quot; face=&quot;Times New Roman&quot;&gt;3&lt;/font&gt;&lt;font style=&quot;border-color: var(--border-color);&quot;&gt;x&lt;/font&gt;&lt;font style=&quot;border-color: var(--border-color);&quot; face=&quot;Times New Roman&quot;&gt;3&lt;/font&gt;&lt;font face=&quot;Times New Roman&quot;&gt;, stride=2&lt;/font&gt;&lt;/font&gt;" style="rounded=0;whiteSpace=wrap;html=1;fillColor=#e1d5e7;strokeColor=default;" vertex="1" parent="1">
          <mxGeometry x="120" y="602" width="160" height="20" as="geometry" />
        </mxCell>
        <mxCell id="hMKVX4WMdSxF5EIK3SUI-33" value="&lt;font face=&quot;Times New Roman&quot;&gt;&lt;span style=&quot;font-size: 14px;&quot;&gt;ReLU&lt;/span&gt;&lt;/font&gt;" style="rounded=0;whiteSpace=wrap;html=1;fillColor=#e1d5e7;strokeColor=default;" vertex="1" parent="1">
          <mxGeometry x="120" y="502" width="160" height="20" as="geometry" />
        </mxCell>
        <mxCell id="hMKVX4WMdSxF5EIK3SUI-34" style="edgeStyle=orthogonalEdgeStyle;rounded=0;orthogonalLoop=1;jettySize=auto;html=1;exitX=0.5;exitY=1;exitDx=0;exitDy=0;entryX=0.5;entryY=0;entryDx=0;entryDy=0;fontFamily=Verdana;fontSize=14;endArrow=none;endFill=0;" edge="1" parent="1" source="hMKVX4WMdSxF5EIK3SUI-35" target="hMKVX4WMdSxF5EIK3SUI-33">
          <mxGeometry relative="1" as="geometry" />
        </mxCell>
        <mxCell id="hMKVX4WMdSxF5EIK3SUI-35" value="" style="shape=orEllipse;perimeter=ellipsePerimeter;whiteSpace=wrap;html=1;backgroundOutline=1;fontFamily=Verdana;fontSize=14;fillColor=none;" vertex="1" parent="1">
          <mxGeometry x="192" y="479" width="16" height="16" as="geometry" />
        </mxCell>
        <mxCell id="hMKVX4WMdSxF5EIK3SUI-36" value="&lt;font face=&quot;Times New Roman&quot;&gt;input&lt;/font&gt;" style="text;strokeColor=none;fillColor=none;html=1;fontSize=14;fontStyle=1;verticalAlign=middle;align=center;fontFamily=Verdana;" vertex="1" parent="1">
          <mxGeometry x="155" y="61" width="90" height="20" as="geometry" />
        </mxCell>
        <mxCell id="hMKVX4WMdSxF5EIK3SUI-37" style="edgeStyle=orthogonalEdgeStyle;rounded=0;orthogonalLoop=1;jettySize=auto;html=1;exitX=0.5;exitY=1;exitDx=0;exitDy=0;fontFamily=Verdana;fontSize=14;endArrow=none;endFill=0;" edge="1" parent="1" source="hMKVX4WMdSxF5EIK3SUI-38">
          <mxGeometry relative="1" as="geometry">
            <mxPoint x="200" y="661" as="targetPoint" />
          </mxGeometry>
        </mxCell>
        <mxCell id="hMKVX4WMdSxF5EIK3SUI-38" value="" style="shape=orEllipse;perimeter=ellipsePerimeter;whiteSpace=wrap;html=1;backgroundOutline=1;fontFamily=Verdana;fontSize=14;fillColor=none;" vertex="1" parent="1">
          <mxGeometry x="192" y="631" width="16" height="16" as="geometry" />
        </mxCell>
        <mxCell id="hMKVX4WMdSxF5EIK3SUI-39" value="" style="edgeStyle=elbowEdgeStyle;elbow=horizontal;endArrow=none;html=1;curved=0;rounded=0;endSize=8;startSize=8;fontFamily=Times New Roman;fontSize=14;exitX=0;exitY=0.5;exitDx=0;exitDy=0;endFill=0;" edge="1" parent="1" source="hMKVX4WMdSxF5EIK3SUI-25">
          <mxGeometry width="50" height="50" relative="1" as="geometry">
            <mxPoint x="190" y="376" as="sourcePoint" />
            <mxPoint x="200" y="206" as="targetPoint" />
            <Array as="points">
              <mxPoint x="70" y="271" />
            </Array>
          </mxGeometry>
        </mxCell>
        <mxCell id="hMKVX4WMdSxF5EIK3SUI-40" value="&lt;font style=&quot;border-color: var(--border-color);&quot; face=&quot;Times New Roman&quot;&gt;Conv 1&lt;/font&gt;&lt;font face=&quot;Helvetica&quot; style=&quot;border-color: var(--border-color);&quot;&gt;x&lt;/font&gt;&lt;font style=&quot;border-color: var(--border-color);&quot;&gt;1&lt;/font&gt;&lt;font style=&quot;border-color: var(--border-color);&quot; face=&quot;Times New Roman&quot;&gt;, stride=2&lt;/font&gt;" style="rounded=0;whiteSpace=wrap;html=1;fontFamily=Times New Roman;fontSize=14;" vertex="1" parent="1">
          <mxGeometry x="36" y="251" width="70" height="40" as="geometry" />
        </mxCell>
        <mxCell id="hMKVX4WMdSxF5EIK3SUI-41" value="" style="edgeStyle=elbowEdgeStyle;elbow=horizontal;endArrow=none;html=1;curved=0;rounded=0;endSize=8;startSize=8;fontFamily=Times New Roman;fontSize=14;exitX=0;exitY=0.5;exitDx=0;exitDy=0;endFill=0;entryX=0;entryY=0.5;entryDx=0;entryDy=0;" edge="1" parent="1" source="hMKVX4WMdSxF5EIK3SUI-35" target="hMKVX4WMdSxF5EIK3SUI-25">
          <mxGeometry width="50" height="50" relative="1" as="geometry">
            <mxPoint x="186" y="471" as="sourcePoint" />
            <mxPoint x="194" y="341" as="targetPoint" />
            <Array as="points">
              <mxPoint x="70" y="411" />
            </Array>
          </mxGeometry>
        </mxCell>
        <mxCell id="hMKVX4WMdSxF5EIK3SUI-42" value="&lt;font style=&quot;border-color: var(--border-color);&quot; face=&quot;Times New Roman&quot;&gt;Conv 1&lt;/font&gt;&lt;font face=&quot;Helvetica&quot; style=&quot;border-color: var(--border-color);&quot;&gt;x&lt;/font&gt;&lt;font style=&quot;border-color: var(--border-color);&quot;&gt;1&lt;/font&gt;&lt;font style=&quot;border-color: var(--border-color);&quot; face=&quot;Times New Roman&quot;&gt;, stride=2&lt;/font&gt;" style="rounded=0;whiteSpace=wrap;html=1;fontFamily=Times New Roman;fontSize=14;" vertex="1" parent="1">
          <mxGeometry x="36" y="391" width="70" height="40" as="geometry" />
        </mxCell>
        <mxCell id="hMKVX4WMdSxF5EIK3SUI-43" value="" style="edgeStyle=elbowEdgeStyle;elbow=horizontal;endArrow=none;html=1;curved=0;rounded=0;endSize=8;startSize=8;fontFamily=Times New Roman;fontSize=14;exitX=0;exitY=0.5;exitDx=0;exitDy=0;endFill=0;entryX=0;entryY=0.5;entryDx=0;entryDy=0;" edge="1" parent="1" source="hMKVX4WMdSxF5EIK3SUI-38">
          <mxGeometry width="50" height="50" relative="1" as="geometry">
            <mxPoint x="192" y="637.5" as="sourcePoint" />
            <mxPoint x="192" y="486.5" as="targetPoint" />
            <Array as="points">
              <mxPoint x="70" y="561.5" />
            </Array>
          </mxGeometry>
        </mxCell>
        <mxCell id="hMKVX4WMdSxF5EIK3SUI-44" value="&lt;font style=&quot;border-color: var(--border-color);&quot; face=&quot;Times New Roman&quot;&gt;Conv 1&lt;/font&gt;&lt;font face=&quot;Helvetica&quot; style=&quot;border-color: var(--border-color);&quot;&gt;x&lt;/font&gt;&lt;font style=&quot;border-color: var(--border-color);&quot;&gt;1&lt;/font&gt;&lt;font style=&quot;border-color: var(--border-color);&quot; face=&quot;Times New Roman&quot;&gt;, stride=2&lt;/font&gt;" style="rounded=0;whiteSpace=wrap;html=1;fontFamily=Times New Roman;fontSize=14;" vertex="1" parent="1">
          <mxGeometry x="36" y="541.5" width="70" height="40" as="geometry" />
        </mxCell>
        <mxCell id="hMKVX4WMdSxF5EIK3SUI-45" value="&lt;b&gt;&lt;font style=&quot;font-size: 18px;&quot; face=&quot;Times New Roman&quot;&gt;Entry Flow&lt;/font&gt;&lt;/b&gt;" style="text;html=1;strokeColor=none;fillColor=none;align=center;verticalAlign=middle;whiteSpace=wrap;rounded=0;fontSize=14;fontFamily=Helvetica;" vertex="1" parent="1">
          <mxGeometry x="110" y="29" width="100" height="30" as="geometry" />
        </mxCell>
        <mxCell id="hMKVX4WMdSxF5EIK3SUI-46" value="" style="rounded=0;whiteSpace=wrap;html=1;fillColor=none;" vertex="1" parent="1">
          <mxGeometry x="309" y="59" width="260" height="212" as="geometry" />
        </mxCell>
        <mxCell id="hMKVX4WMdSxF5EIK3SUI-47" value="" style="endArrow=none;html=1;rounded=0;fontFamily=Verdana;fontSize=14;" edge="1" parent="1">
          <mxGeometry width="50" height="50" relative="1" as="geometry">
            <mxPoint x="439.58" y="84" as="sourcePoint" />
            <mxPoint x="439.58" y="64" as="targetPoint" />
          </mxGeometry>
        </mxCell>
        <mxCell id="hMKVX4WMdSxF5EIK3SUI-48" value="&lt;b&gt;&lt;font style=&quot;font-size: 18px;&quot; face=&quot;Times New Roman&quot;&gt;Middle Flow&lt;/font&gt;&lt;/b&gt;" style="text;html=1;strokeColor=none;fillColor=none;align=center;verticalAlign=middle;whiteSpace=wrap;rounded=0;fontSize=14;fontFamily=Helvetica;" vertex="1" parent="1">
          <mxGeometry x="390" y="29" width="100" height="30" as="geometry" />
        </mxCell>
        <mxCell id="hMKVX4WMdSxF5EIK3SUI-49" value="&lt;font face=&quot;Times New Roman&quot;&gt;&lt;span style=&quot;font-size: 14px;&quot;&gt;ReLU&lt;/span&gt;&lt;/font&gt;" style="rounded=0;whiteSpace=wrap;html=1;fillColor=#00CC66;strokeColor=default;" vertex="1" parent="1">
          <mxGeometry x="359" y="84" width="160" height="20" as="geometry" />
        </mxCell>
        <mxCell id="hMKVX4WMdSxF5EIK3SUI-50" style="edgeStyle=orthogonalEdgeStyle;rounded=0;orthogonalLoop=1;jettySize=auto;html=1;exitX=0.5;exitY=1;exitDx=0;exitDy=0;entryX=0.5;entryY=0;entryDx=0;entryDy=0;fontFamily=Times New Roman;fontSize=18;endArrow=none;endFill=0;" edge="1" parent="1" source="hMKVX4WMdSxF5EIK3SUI-51" target="hMKVX4WMdSxF5EIK3SUI-56">
          <mxGeometry relative="1" as="geometry" />
        </mxCell>
        <mxCell id="hMKVX4WMdSxF5EIK3SUI-51" value="&lt;font style=&quot;font-size: 14px;&quot;&gt;&lt;font face=&quot;Times New Roman&quot;&gt;SeparableConv 3&lt;/font&gt;x&lt;font face=&quot;Times New Roman&quot;&gt;3, 728&lt;/font&gt;&lt;/font&gt;" style="rounded=0;whiteSpace=wrap;html=1;fillColor=#00CC66;" vertex="1" parent="1">
          <mxGeometry x="359" y="104" width="160" height="20" as="geometry" />
        </mxCell>
        <mxCell id="hMKVX4WMdSxF5EIK3SUI-52" style="edgeStyle=orthogonalEdgeStyle;rounded=0;orthogonalLoop=1;jettySize=auto;html=1;exitX=0.5;exitY=1;exitDx=0;exitDy=0;entryX=0.5;entryY=0;entryDx=0;entryDy=0;fontFamily=Times New Roman;fontSize=18;endArrow=none;endFill=0;" edge="1" parent="1" source="hMKVX4WMdSxF5EIK3SUI-53" target="hMKVX4WMdSxF5EIK3SUI-54">
          <mxGeometry relative="1" as="geometry" />
        </mxCell>
        <mxCell id="hMKVX4WMdSxF5EIK3SUI-53" value="&lt;font style=&quot;font-size: 14px;&quot;&gt;&lt;font face=&quot;Times New Roman&quot;&gt;SeparableConv 3&lt;/font&gt;x&lt;font face=&quot;Times New Roman&quot;&gt;3, 728&lt;/font&gt;&lt;/font&gt;" style="rounded=0;whiteSpace=wrap;html=1;fillColor=#00CC66;" vertex="1" parent="1">
          <mxGeometry x="359" y="154" width="160" height="20" as="geometry" />
        </mxCell>
        <mxCell id="hMKVX4WMdSxF5EIK3SUI-54" value="&lt;font face=&quot;Times New Roman&quot;&gt;&lt;span style=&quot;font-size: 14px;&quot;&gt;ReLU&lt;/span&gt;&lt;/font&gt;" style="rounded=0;whiteSpace=wrap;html=1;fillColor=#00CC66;" vertex="1" parent="1">
          <mxGeometry x="359" y="184" width="160" height="20" as="geometry" />
        </mxCell>
        <mxCell id="hMKVX4WMdSxF5EIK3SUI-55" value="&lt;font style=&quot;font-size: 14px;&quot;&gt;&lt;font face=&quot;Times New Roman&quot;&gt;SeparableConv 3&lt;/font&gt;x&lt;font face=&quot;Times New Roman&quot;&gt;3, 728&lt;/font&gt;&lt;/font&gt;" style="rounded=0;whiteSpace=wrap;html=1;fillColor=#00CC66;" vertex="1" parent="1">
          <mxGeometry x="359" y="204" width="160" height="20" as="geometry" />
        </mxCell>
        <mxCell id="hMKVX4WMdSxF5EIK3SUI-56" value="&lt;font face=&quot;Times New Roman&quot;&gt;&lt;span style=&quot;font-size: 14px;&quot;&gt;ReLU&lt;/span&gt;&lt;/font&gt;" style="rounded=0;whiteSpace=wrap;html=1;fillColor=#00CC66;" vertex="1" parent="1">
          <mxGeometry x="359" y="134" width="160" height="20" as="geometry" />
        </mxCell>
        <mxCell id="hMKVX4WMdSxF5EIK3SUI-57" value="" style="edgeStyle=elbowEdgeStyle;elbow=horizontal;endArrow=none;html=1;curved=0;rounded=0;endSize=8;startSize=8;fontFamily=Times New Roman;fontSize=14;endFill=0;" edge="1" parent="1">
          <mxGeometry width="50" height="50" relative="1" as="geometry">
            <mxPoint x="439" y="234" as="sourcePoint" />
            <mxPoint x="439" y="74" as="targetPoint" />
            <Array as="points">
              <mxPoint x="340" y="151" />
            </Array>
          </mxGeometry>
        </mxCell>
        <mxCell id="hMKVX4WMdSxF5EIK3SUI-58" value="" style="endArrow=none;html=1;rounded=0;fontFamily=Verdana;fontSize=14;" edge="1" parent="1">
          <mxGeometry width="50" height="50" relative="1" as="geometry">
            <mxPoint x="438.58" y="244" as="sourcePoint" />
            <mxPoint x="438.58" y="224" as="targetPoint" />
          </mxGeometry>
        </mxCell>
        <mxCell id="hMKVX4WMdSxF5EIK3SUI-59" value="" style="rounded=0;whiteSpace=wrap;html=1;fillColor=none;" vertex="1" parent="1">
          <mxGeometry x="310" y="302" width="260" height="370" as="geometry" />
        </mxCell>
        <mxCell id="hMKVX4WMdSxF5EIK3SUI-60" value="&lt;font style=&quot;font-size: 14px;&quot;&gt;&lt;font face=&quot;Times New Roman&quot;&gt;SeparableConv 3&lt;/font&gt;x&lt;font face=&quot;Times New Roman&quot;&gt;3, 728&lt;/font&gt;&lt;/font&gt;" style="rounded=0;whiteSpace=wrap;html=1;fillColor=#EDD100;strokeColor=#000000;" vertex="1" parent="1">
          <mxGeometry x="400" y="351" width="160" height="20" as="geometry" />
        </mxCell>
        <mxCell id="hMKVX4WMdSxF5EIK3SUI-61" value="&lt;font face=&quot;Times New Roman&quot;&gt;&lt;span style=&quot;font-size: 14px;&quot;&gt;ReLU&lt;/span&gt;&lt;/font&gt;" style="rounded=0;whiteSpace=wrap;html=1;fillColor=#EDD100;" vertex="1" parent="1">
          <mxGeometry x="400" y="381" width="160" height="20" as="geometry" />
        </mxCell>
        <mxCell id="hMKVX4WMdSxF5EIK3SUI-62" value="&lt;font style=&quot;font-size: 14px;&quot;&gt;&lt;font face=&quot;Times New Roman&quot;&gt;SeparableConv 3&lt;/font&gt;x&lt;font face=&quot;Times New Roman&quot;&gt;3, 1024&lt;/font&gt;&lt;/font&gt;" style="rounded=0;whiteSpace=wrap;html=1;fillColor=#EDD100;" vertex="1" parent="1">
          <mxGeometry x="400" y="401" width="160" height="20" as="geometry" />
        </mxCell>
        <mxCell id="hMKVX4WMdSxF5EIK3SUI-63" style="edgeStyle=orthogonalEdgeStyle;rounded=0;orthogonalLoop=1;jettySize=auto;html=1;exitX=0.5;exitY=1;exitDx=0;exitDy=0;entryX=0.5;entryY=0;entryDx=0;entryDy=0;fontFamily=Verdana;fontSize=14;endArrow=none;endFill=0;" edge="1" parent="1" source="hMKVX4WMdSxF5EIK3SUI-64" target="hMKVX4WMdSxF5EIK3SUI-72">
          <mxGeometry relative="1" as="geometry" />
        </mxCell>
        <mxCell id="hMKVX4WMdSxF5EIK3SUI-64" value="&lt;font style=&quot;font-size: 14px;&quot;&gt;&lt;font face=&quot;Times New Roman&quot;&gt;Maxpooling&amp;nbsp;&lt;/font&gt;&lt;font style=&quot;border-color: var(--border-color);&quot; face=&quot;Times New Roman&quot;&gt;3&lt;/font&gt;&lt;font style=&quot;border-color: var(--border-color);&quot;&gt;x&lt;/font&gt;&lt;font style=&quot;border-color: var(--border-color);&quot; face=&quot;Times New Roman&quot;&gt;3&lt;/font&gt;&lt;font face=&quot;Times New Roman&quot;&gt;, stride=2&lt;/font&gt;&lt;/font&gt;" style="rounded=0;whiteSpace=wrap;html=1;fillColor=#EDD100;" vertex="1" parent="1">
          <mxGeometry x="400" y="431" width="160" height="20" as="geometry" />
        </mxCell>
        <mxCell id="hMKVX4WMdSxF5EIK3SUI-65" value="&lt;font style=&quot;font-size: 14px;&quot;&gt;&lt;font face=&quot;Times New Roman&quot;&gt;SeparableConv 3&lt;/font&gt;x&lt;font face=&quot;Times New Roman&quot;&gt;3, 1536&lt;/font&gt;&lt;/font&gt;" style="rounded=0;whiteSpace=wrap;html=1;fillColor=none;" vertex="1" parent="1">
          <mxGeometry x="400" y="482" width="160" height="20" as="geometry" />
        </mxCell>
        <mxCell id="hMKVX4WMdSxF5EIK3SUI-66" style="edgeStyle=orthogonalEdgeStyle;rounded=0;orthogonalLoop=1;jettySize=auto;html=1;exitX=0.5;exitY=1;exitDx=0;exitDy=0;entryX=0.5;entryY=0;entryDx=0;entryDy=0;fontFamily=Times New Roman;fontSize=14;endArrow=none;endFill=0;" edge="1" parent="1" source="hMKVX4WMdSxF5EIK3SUI-67" target="hMKVX4WMdSxF5EIK3SUI-68">
          <mxGeometry relative="1" as="geometry" />
        </mxCell>
        <mxCell id="hMKVX4WMdSxF5EIK3SUI-67" value="&lt;font face=&quot;Times New Roman&quot;&gt;&lt;span style=&quot;font-size: 14px;&quot;&gt;ReLU&lt;/span&gt;&lt;/font&gt;" style="rounded=0;whiteSpace=wrap;html=1;fillColor=none;" vertex="1" parent="1">
          <mxGeometry x="400" y="502" width="160" height="20" as="geometry" />
        </mxCell>
        <mxCell id="hMKVX4WMdSxF5EIK3SUI-68" value="&lt;font style=&quot;font-size: 14px;&quot;&gt;&lt;font face=&quot;Times New Roman&quot;&gt;SeparableConv 3&lt;/font&gt;x&lt;font face=&quot;Times New Roman&quot;&gt;3, 2048&lt;/font&gt;&lt;/font&gt;" style="rounded=0;whiteSpace=wrap;html=1;fillColor=none;" vertex="1" parent="1">
          <mxGeometry x="400" y="531" width="160" height="20" as="geometry" />
        </mxCell>
        <mxCell id="hMKVX4WMdSxF5EIK3SUI-69" value="" style="endArrow=none;html=1;rounded=0;fontFamily=Verdana;fontSize=14;" edge="1" parent="1">
          <mxGeometry width="50" height="50" relative="1" as="geometry">
            <mxPoint x="479.58000000000004" y="381" as="sourcePoint" />
            <mxPoint x="479.58000000000004" y="371" as="targetPoint" />
          </mxGeometry>
        </mxCell>
        <mxCell id="hMKVX4WMdSxF5EIK3SUI-70" value="" style="endArrow=none;html=1;rounded=0;fontFamily=Verdana;fontSize=14;" edge="1" parent="1">
          <mxGeometry width="50" height="50" relative="1" as="geometry">
            <mxPoint x="479.58000000000004" y="431" as="sourcePoint" />
            <mxPoint x="479.58000000000004" y="421" as="targetPoint" />
          </mxGeometry>
        </mxCell>
        <mxCell id="hMKVX4WMdSxF5EIK3SUI-71" style="edgeStyle=orthogonalEdgeStyle;rounded=0;orthogonalLoop=1;jettySize=auto;html=1;exitX=0.5;exitY=1;exitDx=0;exitDy=0;entryX=0.5;entryY=0;entryDx=0;entryDy=0;fontFamily=Verdana;fontSize=14;endArrow=none;endFill=0;" edge="1" parent="1" source="hMKVX4WMdSxF5EIK3SUI-72">
          <mxGeometry relative="1" as="geometry">
            <mxPoint x="480" y="481" as="targetPoint" />
          </mxGeometry>
        </mxCell>
        <mxCell id="hMKVX4WMdSxF5EIK3SUI-72" value="" style="shape=orEllipse;perimeter=ellipsePerimeter;whiteSpace=wrap;html=1;backgroundOutline=1;fontFamily=Verdana;fontSize=14;fillColor=none;" vertex="1" parent="1">
          <mxGeometry x="472" y="458" width="16" height="16" as="geometry" />
        </mxCell>
        <mxCell id="hMKVX4WMdSxF5EIK3SUI-73" style="edgeStyle=orthogonalEdgeStyle;rounded=0;orthogonalLoop=1;jettySize=auto;html=1;exitX=0.5;exitY=1;exitDx=0;exitDy=0;entryX=0.5;entryY=0;entryDx=0;entryDy=0;fontFamily=Times New Roman;fontSize=14;endArrow=none;endFill=0;" edge="1" parent="1" source="hMKVX4WMdSxF5EIK3SUI-74" target="hMKVX4WMdSxF5EIK3SUI-81">
          <mxGeometry relative="1" as="geometry" />
        </mxCell>
        <mxCell id="hMKVX4WMdSxF5EIK3SUI-74" value="&lt;font face=&quot;Times New Roman&quot;&gt;&lt;span style=&quot;font-size: 14px;&quot;&gt;ReLU&lt;/span&gt;&lt;/font&gt;" style="rounded=0;whiteSpace=wrap;html=1;fillColor=none;" vertex="1" parent="1">
          <mxGeometry x="400" y="551" width="160" height="20" as="geometry" />
        </mxCell>
        <mxCell id="hMKVX4WMdSxF5EIK3SUI-75" value="" style="edgeStyle=elbowEdgeStyle;elbow=horizontal;endArrow=none;html=1;curved=0;rounded=0;endSize=8;startSize=8;fontFamily=Times New Roman;fontSize=14;exitX=0;exitY=0.5;exitDx=0;exitDy=0;endFill=0;" edge="1" parent="1" source="hMKVX4WMdSxF5EIK3SUI-72">
          <mxGeometry width="50" height="50" relative="1" as="geometry">
            <mxPoint x="470" y="506" as="sourcePoint" />
            <mxPoint x="480" y="321" as="targetPoint" />
            <Array as="points">
              <mxPoint x="350" y="401" />
            </Array>
          </mxGeometry>
        </mxCell>
        <mxCell id="hMKVX4WMdSxF5EIK3SUI-76" value="&lt;font style=&quot;border-color: var(--border-color);&quot; face=&quot;Times New Roman&quot;&gt;Conv 1&lt;/font&gt;&lt;font face=&quot;Helvetica&quot; style=&quot;border-color: var(--border-color);&quot;&gt;x&lt;/font&gt;&lt;font style=&quot;border-color: var(--border-color);&quot;&gt;1&lt;/font&gt;&lt;font style=&quot;border-color: var(--border-color);&quot; face=&quot;Times New Roman&quot;&gt;, stride=2&lt;/font&gt;" style="rounded=0;whiteSpace=wrap;html=1;fontFamily=Times New Roman;fontSize=14;" vertex="1" parent="1">
          <mxGeometry x="316" y="381" width="70" height="40" as="geometry" />
        </mxCell>
        <mxCell id="hMKVX4WMdSxF5EIK3SUI-77" value="&lt;b&gt;&lt;font style=&quot;font-size: 18px;&quot; face=&quot;Times New Roman&quot;&gt;Exit Flow&lt;/font&gt;&lt;/b&gt;" style="text;html=1;strokeColor=none;fillColor=none;align=center;verticalAlign=middle;whiteSpace=wrap;rounded=0;fontSize=14;fontFamily=Helvetica;" vertex="1" parent="1">
          <mxGeometry x="386" y="272" width="100" height="30" as="geometry" />
        </mxCell>
        <mxCell id="hMKVX4WMdSxF5EIK3SUI-78" value="&lt;font style=&quot;font-size: 14px;&quot;&gt;&lt;b&gt;Repeat 8 times&lt;/b&gt;&lt;/font&gt;" style="text;html=1;strokeColor=none;fillColor=none;align=center;verticalAlign=middle;whiteSpace=wrap;rounded=0;fontSize=18;fontFamily=Times New Roman;" vertex="1" parent="1">
          <mxGeometry x="384" y="240" width="110" height="30" as="geometry" />
        </mxCell>
        <mxCell id="hMKVX4WMdSxF5EIK3SUI-79" value="&lt;font face=&quot;Times New Roman&quot;&gt;&lt;span style=&quot;font-size: 14px;&quot;&gt;ReLU&lt;/span&gt;&lt;/font&gt;" style="rounded=0;whiteSpace=wrap;html=1;fillColor=#EDD100;strokeColor=default;fontColor=#000000;" vertex="1" parent="1">
          <mxGeometry x="400" y="331" width="160" height="20" as="geometry" />
        </mxCell>
        <mxCell id="hMKVX4WMdSxF5EIK3SUI-80" style="edgeStyle=orthogonalEdgeStyle;rounded=0;orthogonalLoop=1;jettySize=auto;html=1;exitX=0.5;exitY=1;exitDx=0;exitDy=0;entryX=0.5;entryY=0;entryDx=0;entryDy=0;fontFamily=Times New Roman;fontSize=14;endArrow=none;endFill=0;" edge="1" parent="1" source="hMKVX4WMdSxF5EIK3SUI-81" target="hMKVX4WMdSxF5EIK3SUI-83">
          <mxGeometry relative="1" as="geometry" />
        </mxCell>
        <mxCell id="hMKVX4WMdSxF5EIK3SUI-81" value="&lt;font face=&quot;Times New Roman&quot;&gt;&lt;span style=&quot;font-size: 14px;&quot;&gt;GlobalAveragePooling&lt;/span&gt;&lt;/font&gt;" style="rounded=0;whiteSpace=wrap;html=1;fillColor=none;" vertex="1" parent="1">
          <mxGeometry x="400" y="581" width="160" height="20" as="geometry" />
        </mxCell>
        <mxCell id="hMKVX4WMdSxF5EIK3SUI-82" style="edgeStyle=orthogonalEdgeStyle;rounded=0;orthogonalLoop=1;jettySize=auto;html=1;exitX=0.5;exitY=1;exitDx=0;exitDy=0;entryX=0.5;entryY=0;entryDx=0;entryDy=0;fontFamily=Times New Roman;fontSize=14;endArrow=none;endFill=0;" edge="1" parent="1" source="hMKVX4WMdSxF5EIK3SUI-83" target="hMKVX4WMdSxF5EIK3SUI-84">
          <mxGeometry relative="1" as="geometry" />
        </mxCell>
        <mxCell id="hMKVX4WMdSxF5EIK3SUI-83" value="&lt;font face=&quot;Times New Roman&quot;&gt;&lt;span style=&quot;font-size: 14px;&quot;&gt;FC&lt;/span&gt;&lt;/font&gt;" style="rounded=0;whiteSpace=wrap;html=1;fillColor=none;" vertex="1" parent="1">
          <mxGeometry x="400" y="612" width="160" height="20" as="geometry" />
        </mxCell>
        <mxCell id="hMKVX4WMdSxF5EIK3SUI-84" value="&lt;font face=&quot;Times New Roman&quot;&gt;&lt;span style=&quot;font-size: 14px;&quot;&gt;Softmax&lt;/span&gt;&lt;/font&gt;" style="rounded=0;whiteSpace=wrap;html=1;fillColor=none;" vertex="1" parent="1">
          <mxGeometry x="400" y="641" width="160" height="20" as="geometry" />
        </mxCell>
        <mxCell id="hMKVX4WMdSxF5EIK3SUI-85" value="" style="endArrow=none;html=1;rounded=0;fontFamily=Times New Roman;fontSize=14;" edge="1" parent="1">
          <mxGeometry width="50" height="50" relative="1" as="geometry">
            <mxPoint x="480" y="331" as="sourcePoint" />
            <mxPoint x="480" y="311" as="targetPoint" />
          </mxGeometry>
        </mxCell>
      </root>
    </mxGraphModel>
  </diagram>
</mxfile>
